<svg height="185" viewBox="0 0 532 185" width="532" xmlns="http://www.w3.org/2000/svg"><g fill="none" fill-rule="evenodd"><g fill="#21285e" fill-rule="nonzero" transform="translate(238)"><path d="m12.13 150.94c-3.25066139.120323-6.39550613-1.166038-8.63-3.53-2.18746971-2.386482-3.35400748-5.534339-3.25-8.77-.03049219-3.25891.77516353-6.471204 2.34-9.33 1.37475894-2.556253 3.05361368-4.936869 5-7.09l48.31-54.62h-42.11c-4.08 0-7-1.4-8.6-4.18-1.55784863-2.7926945-2.33505015-5.953314-2.25-9.15-.11249587-3.0808404.77505682-6.1153585 2.53-8.65 1.73944639-2.3986722 4.5703012-3.7595878 7.53-3.62h74.4c3.145683-.1449338 6.2135777 1.0041716 8.49 3.18 2.11 2.11 3.18 5.11 3.18 8.91.0890587 2.9590734-.5279674 5.8968035-1.8 8.57-1.2206469 2.3290443-2.751236 4.4819608-4.55 6.4l-50.31 56.27h47.67c2.8677855-.071381 5.5978099 1.228631 7.35 3.5 1.8670113 2.539455 2.809167 5.64116 2.67 8.79.13612 3.280672-.6503103 6.533789-2.27 9.39-1.63 2.61-4.52 3.94-8.58 3.94z"/><path d="m129 152.38c-13.24 0-16-6.8-16-12.5v-83.2c0-4.35 1.31-7.87 3.91-10.46s6.74-3.91 12.32-3.91c4.7 0 8.42 1.07 11.07 3.19s4.12 5.54 4.12 9.94v84c0 4.57-1.44 7.93-4.28 10s-6.49 2.94-11.14 2.94zm0-119c-5.16 0-9.39-1.51-12.59-4.49s-4.87-7.09-4.87-12.14c-.122903-4.477014 1.636271-8.80059211 4.85-11.92 3.17-3.11 7.42-4.7 12.61-4.7 4.279864.00933323 8.440029 1.4136085 11.85 4 3.72 2.74 5.61 7 5.61 12.66 0 5.05-1.64 9.14-4.87 12.15s-7.46 4.47-12.59 4.47z"/><path d="m178.94 184.261519c-12.38 0-15-6.910072-15-12.710133v-117.6912255c-.106877-3.6862836 1.311294-7.2534535 3.92-9.8601027 2.59-2.590027 6.74-3.9100407 12.32-3.9100407 3.470656-.0352607 6.899396.7602154 10 2.3200241 3.29 1.6900176 5 5.0000521 5 9.7501016.666667-.7666747 1.383333-1.5533495 2.15-2.3600246 2.101644-2.1334255 4.45179-4.006847 7-5.5800581 6.19359-3.865862 13.369727-5.865619 20.67-5.76006 6.995681-.1359179 13.926422 1.363932 20.24 4.3800456 5.778025 2.8521983 10.808722 7.0165222 14.69 12.1601267 4.044875 5.5015396 6.998122 11.7271851 8.7 18.340191 1.94684 7.47243 2.901706 15.1686022 2.84 22.8902385.071495 7.8655281-1.02719 15.6979551-3.26 23.2402421-1.972956 6.699676-5.211341 12.95926-9.54 18.440192-4.170821 5.164421-9.456115 9.318172-15.46 12.150127-6.532852 2.995638-13.654063 4.488921-20.84 4.370045-4.812213.13821-9.613171-.537989-14.2-2.000021-3.294116-1.116826-6.424937-2.66712-9.31-4.610048-1.563732-1.061756-3.005761-2.292523-4.3-3.670038v26.800279c0 4.660049-1.27 8.100085-3.78 10.220107s-6.37 3.090032-11.84 3.090032zm38.06-119.1412412c-3.407445-.0824196-6.778805.713078-9.79 2.3100241-2.833632 1.6068165-5.262222 3.8404585-7.1 6.530068-2.064714 3.0430412-3.57153 6.4291789-4.45 10.0001042-1.034983 4.1497119-1.542322 8.4134188-1.51 12.6901321 0 9.7401018 2 17.5501828 6 23.2202418s9.43 8.320087 16.89 8.320087 12.89-2.84003 16.66-8.690091 5.78-13.640142 5.78-22.8502378c.012509-4.2654439-.511606-8.5155199-1.56-12.6501317-.878599-3.5555298-2.35276-6.936667-4.36-10.0001042-1.785388-2.6933118-4.184453-4.9244656-7-6.5100678-2.930055-1.5984206-6.222618-2.4146816-9.56-2.3700247z"/></g><g fill-rule="nonzero"><path d="m182.48 69.28-41.22 37.08h-102.09c-9.5224617-.012831-18.7205975 3.458701-25.86 9.76l51.49-46.33.79-.7 64.51-58.09c10.401788-9.3567858 25.005222-12.45352478 38.30933-8.12370533s23.287679 15.42839473 26.19 29.11500003c2.90232 13.6866052-1.717542 27.8819195-12.11933 37.2387053z" fill="#f15c3e"/><circle cx="39.17" cy="40.17" fill="#f8991c" r="39.17"/><path d="m39.17 106.36c-9.5224617-.012831-18.7205975 3.458701-25.86 9.76l-.33.3c-16.08253137 14.464338-17.39433677 39.227468-2.9299994 55.309999 14.4643374 16.082532 39.2274674 17.394338 55.3099994 2.930001l75.91-68.29z" fill="#21285e"/><path d="m141.207268 106.389998-75.9179698 68.29c-7.1885974 6.464244-16.5218616 10.028014-26.1892997 10.000487l117.1268685-.000487c22.59222-.361023 38.54313-17.358137 38.54313-39.165 0-21.806862-17.157452-38.823257-38.54313-39.165z" fill="#00aeb8"/></g><path d="m5.80979545 2.06728409v8.17926141c0 .2388875-.07789694.4440161-.23369318.615392-.15579623.1713759-.43622524.2570625-.84129545.2570625-.73743551 0-1.10614773-.2908153-1.10614773-.8724545v-8.17926141h-2.63294318c-.30120605 0-.51412438-.09347634-.63876136-.28043182-.12463699-.18695548-.18695455-.40506693-.18695455-.65434091 0-.24927397.06491412-.46738543.19474432-.6543409.12983019-.18695549.32976569-.28043182.5998125-.28043182h7.63397727c.25966039 0 .45699933.09347633.59202273.28043182.1350234.18695547.20253409.40506693.20253409.6543409 0 .24927398-.06231756.46738543-.18695455.65434091-.12463698.18695548-.33755531.28043182-.63876136.28043182zm14.22412505 1.38657955-2.4615682 6.80826136c-.0934778.2700468-.241482.459596-.4440171.5686534s-.4336294.1635852-.6932897.1635852c-.373911 0-.65434-.0753003-.8412955-.2259034-.1869555-.150603-.3323631-.3609248-.4362273-.6309716l-2.3213522-6.16949996v6.27855686c0 .2388875-.0753004.4440161-.2259035.615392-.150603.1713759-.4284354.2570625-.8335056.2570625-.3842974 0-.6517436-.0727038-.8023466-.2181136-.1506031-.1454099-.2259034-.3791007-.2259034-.7010796v-8.97381816c0-.38429738.1298282-.65953326.3894886-.82571591s.6127932-.24927273 1.0594091-.24927273c.4570023 0 .8075385.08568664 1.0516193.2570625s.4180506.4128564.5219148.72444886l2.6641023 7.63397728 2.5550454-7.57165909c.124637-.37391096.3245725-.64135715.5998125-.80234659.27524-.16098945.6517419-.24148296 1.1295171-.24148296.4362294 0 .778976.08049351 1.02825.24148296.2492739.16098944.373909.40766311.373909.7400284v9.11403414c0 .2388875-.0753003.4440161-.2259034.615392-.150603.1713759-.4284354.2570625-.8335056.2570625-.373911 0-.6387606-.0804935-.7945569-.241483-.1557962-.1609894-.2336931-.3920837-.2336931-.6932897z" fill="#21285e" fill-rule="evenodd" transform="translate(509 28)"/></g></svg>