<svg height="16" viewBox="0 0 21 16" width="21" xmlns="http://www.w3.org/2000/svg"><path d="m2.625 13.3333333h-1.75c-.483 0-.875-.3982222-.875-.8888889v-1.7777777h13.125v-8.00000003h4.083625c.977375 0 1.4.512 1.694.984.51975.83555555 1.344 2.16177777 1.845375 3.00266666.1645.27733334.252.59555556.252.92v3.98222227c0 .9964444-.637 1.7777777-1.75 1.7777777h-.875c0 1.472-1.176 2.6666667-2.625 2.6666667s-2.625-1.1946667-2.625-2.6666667h-5.25c0 1.472-1.176 2.6666667-2.625 2.6666667s-2.625-1.1946667-2.625-2.6666667zm2.625-1.0666666c.57925 0 1.05.4782222 1.05 1.0666666 0 .5884445-.47075 1.0666667-1.05 1.0666667s-1.05-.4782222-1.05-1.0666667c0-.5884444.47075-1.0666666 1.05-1.0666666zm10.5 0c.57925 0 1.05.4782222 1.05 1.0666666 0 .5884445-.47075 1.0666667-1.05 1.0666667s-1.05-.4782222-1.05-1.0666667c0-.5884444.47075-1.0666666 1.05-1.0666666zm-3.5-2.48888892h-12.25v-8.88888889c0-.49066667.392-.88888889.875-.88888889h10.5c.483 0 .875.39822222.875.88888889zm2.625-5.33333334v2.66666667h4.125625l-1.248625-2.21866667c-.15575-.27733333-.445375-.448-.7595-.448z" fill="#04086f" fill-rule="evenodd"/></svg>