<svg height="21" viewBox="0 0 35 21" width="35" xmlns="http://www.w3.org/2000/svg"><g fill="none" fill-rule="evenodd" transform="matrix(1 0 0 -1 .607806 20.19906)"><rect fill="#fff" height="19.867927" rx="2" width="33.419335" x=".062661" y=".050611"/><g transform="translate(6.01548 6.953775)"><path d="m14.5478583 4.22205915c-.0897806-.58410266-.5399538-.58410266-.9755166-.58410266h-.2477435l.1738439 1.09057674c.0103756.06587939.0677589.11434481.1350944.11434481h.1137079c.2964452 0 .5763742 0 .7207854-.16721617.0863926-.10007794.1124375-.24862129.0798285-.45360272m-.1895132 1.52403798h-1.6423066c-.1124375 0-.2079352-.08098549-.2255102-.19092436l-.6640373-4.17264143c-.0131283-.08224434.0512427-.15672582.1350943-.15672582h.8427515c.078558 0 .1454699.05664789.1577512.13343725l.1884545 1.18310162c.0173632.10993886.1130727.19092436.2252984.19092436h.5196261c1.0818134 0 1.7062541.51864288 1.869299 1.54690694.073476.44940657.0029644.80272155-.2094174 1.05008399-.2335565.27190986-.6475211.41583745-1.1970035.41583745" fill="#0079c1"/><path d="m2.83409998 4.22205915c-.08978056-.58410266-.53995382-.58410266-.97551658-.58410266h-.24774352l.17384396 1.09057674c.01037558.06587939.06775891.11434481.13509433.11434481h.11370792c.29644524 0 .57637424 0 .72078542-.16721617.08639262-.10007794.11243745-.24862129.07982847-.45360272m-.1895132 1.52403798h-1.64230662c-.11243744 0-.20793516-.08098549-.22551013-.19092436l-.66403733-4.17264143c-.01312829-.08224434.05103093-.15672582.13509433-.15672582h.7843094c.1122257 0 .20772341.0809855.22529838.19071455l.17934937 1.12582432c.01736322.10993886.11307268.19092436.22529838.19092436h.51962615c1.08181337 0 1.70625409.51864288 1.86929897 1.54690694.07347607.44940657.00296445.80272155-.20941738 1.05008399-.2335565.27190986-.6475211.41583745-1.19700352.41583745" fill="#00457c"/><path d="m6.45735955 2.7240792c-.07601703-.44521043-.4325983-.74418539-.88764174-.74418539-.22805109 0-.4107884.07280302-.52809602.21043641-.11624888.13637454-.16008043.33086562-.12323652.54717663.07072337.44143391.43323354.74985018.88128934.74985018.22339267 0 .40464775-.07343244.52428458-.21232467.12048382-.13994126.16791505-.33548138.13340036-.55095316m1.09600039 1.51669474h-.78642686c-.06733542 0-.12471875-.04846542-.13530608-.11455462l-.0345147-.21777966-.05484236.07888743c-.17045602.24484476-.55011767.32687929-.92914408.32687929-.86879629 0-1.61096812-.65249974-1.7553793-1.56746802-.07517004-.45654002.03155024-.89272875.29284555-1.19715869.23990889-.27967272.58230314-.3961156.99033884-.3961156.70045774 0 1.08880101.44563005 1.08880101.44563005l-.03514994-.21652082c-.01312829-.08224434.05103093-.15672582.13530608-.15672582h.70808062c.11243745 0 .20793516.08077569.22551013.19071456l.42518717 2.66748608c.01312829.08224434-.05124268.15672582-.13530608.15672582" fill="#00457c"/><path d="m18.171139 2.7240792c-.076017-.44521043-.4325983-.74418539-.8876417-.74418539-.2280511 0-.4107884.07280302-.528096.21043641-.1164607.13637454-.1600805.33086562-.1232366.54717663.0707234.44143391.4332336.74985018.8812894.74985018.2233926 0 .4046477-.07343244.5242846-.21232467.1204838-.13994126.167915-.33548138.1334003-.55095316m1.0960004 1.51669474h-.7864269c-.0673354 0-.1247187-.04846542-.135306-.11455462l-.0345147-.21777966-.0550541.07888743c-.1702443.24484476-.549906.32687929-.9289324.32687929-.8687963 0-1.6109681-.65249974-1.7553793-1.56746802-.07517-.45654002.0315503-.89272875.2928456-1.19715869.2399089-.27967272.5823031-.3961156.9903388-.3961156.7004578 0 1.088801.44563005 1.088801.44563005l-.0351499-.21652082c-.0131283-.08224434.0510309-.15672582.1353061-.15672582h.7080806c.1124374 0 .2079352.08077569.2255101.19071456l.4251872 2.66748608c.0131283.08224434-.0512427.15672582-.1353061.15672582" fill="#0079c1"/><path d="m11.7418559 4.24075296h-.7904501c-.0755935 0-.1463169-.03713584-.1886662-.09923871l-1.09049497-1.59117622-.46203108 1.52907335c-.02900928.09567199-.11794285.16134158-.21873424.16134158h-.77689826c-.09380375 0-.15986869-.09147585-.12958892-.17938498l.87027852-2.53153115-.81861235-1.14449713c-.06415922-.0897974.00063524-.21400313.1118022-.21400313h.78960307c.07474655 0 .14483467.0362966.18760748.09714063l2.62862225 3.75932166c.0628888.0900072-.0019057.2129541-.1124374.2129541" fill="#00457c"/><path d="m20.194039 5.63143761-.6739894-4.24901117c-.0131283-.08224434.0510309-.15672582.1350943-.15672582h.6780126c.1122257 0 .2079351.08098549.2252984.19092436l.6646725 4.17264143c.0131283.08224434-.0510309.15672582-.135306.15672582h-.7584763c-.0675472 0-.1249305-.04846541-.1353061-.11455462" fill="#0079c1"/></g></g></svg>