<svg height="32" viewBox="0 0 28 32" width="28" xmlns="http://www.w3.org/2000/svg"><path d="m15.2723167 19.236c.0864.356.10395.9053333-.02835 1.264-.1728.468-.51435.704-1.0179.704h-.85995v-2.8266667h.6696c.6399 0 1.08405.2306667 1.2366.8586667zm4.17285-11.53333333c2.76345-.63866667 6.48675.372 8.2215 1.572-2.0169-2.66266667-7.0605-7.61066667-10.0332-9.176 1.56195 1.55733333 2.11005 5.64666666 1.8117 7.604zm-10.06695003 10.60666663h-.7371v1.2573334h.7371c.31725 0 .63045003-.036.77760003-.3026667.09045-.164.09045-.488 0-.652-.14715-.264-.46035003-.3026667-.77760003-.3026667zm18.28845003-3.6426666v17.3333333h-27.00000003v-32h11.35215003c6.5583 0 4.5009 10.6666667 4.5009 10.6666667 4.06485-.99333337 11.14695-.56 11.14695 4zm-16.3458 3.6813333c-.216-.6453333-.8181-1.0146667-1.65240003-1.0146667h-2.2518v4.9146667h1.22445v-1.7026667h1.02735c.83565003 0 1.43640003-.3693333 1.65240003-1.0173333.1269-.3893333.1269-.796 0-1.18zm4.59945-.404c-.40095-.3986667-.95985-.6106667-1.61865-.6106667h-2.15865v4.9146667h2.15865c.72495 0 1.29735-.2413333 1.7037-.7133333.7479-.8786667.7911-2.7133334-.08505-3.5906667zm4.99635-.6106667h-3.5478v4.9146667h1.22445v-1.9626667h2.0115v-.976h-2.0115v-.9306666h2.32335z" fill="#a70e12"/></svg>