<svg height="21" viewBox="0 0 35 21" width="35" xmlns="http://www.w3.org/2000/svg"><g fill="none" fill-rule="evenodd" transform="translate(.737401)"><rect fill="#fff" height="20.19906" rx="2" width="33.976324"/><g fill="#0072ce"><path d="m28.6785184 11.670203h-1.2003974c-.1198486 0-.1994706.0044336-.2665426.0491801-.0694823.0440897-.0962446.1095264-.0962446.1958996 0 .1027118.0586776.1725821.1440344.2027963.0694823.0238921.1441175.030871.2538263.030871l.3569693.0094419c.3602106.0087851.6006558.0699524.7472667.2191349.0266792.0207723.04272.0440897.0610879.0674072zm0 1.7950344c-.1599921.2311221-.471748.3482842-.8937945.3482842h-1.2719575v-.5838399h1.2668045c.1256665 0 .2135998-.0163386.2665426-.0674071.0458782-.0421193.0778766-.1032866.0778766-.1775905 0-.0793122-.0319984-.1422858-.0804531-.1800535-.0477898-.0415445-.1173552-.0604284-.2320508-.0604284-.618442-.0207722-1.3899776.0188839-1.3899776-.842713 0-.394919.2538263-.8106104.9449919-.8106104h1.3119348v-.5417206h-1.2189316c-.367857 0-.6350645.08703-.8243122.222337v-.222337h-1.8029649c-.2883181 0-.6267532.0706093-.7868283.222337v-.222337h-3.2196217v.222337c-.2562366-.1825987-.6885891-.222337-.8881428-.222337h-2.1236969v.222337c-.202712-.1939291-.6535156-.222337-.9282863-.222337h-2.3767753l-.5438898.5814589-.509398-.5814589h-3.55041038v3.7991051h3.48358768l.5604293-.5906544.5279322.5906544 2.1473009.0018884v-.8936994h.2111064c.2849105.0043515.6209353-.0069788.9173985-.1335828v1.0253117h1.7711327v-.9901713h.0854399c.1090439 0 .1197654.0044336.1197654.1120716v.8780176h5.3803869c.3415934 0 .6986457-.0863731.896371-.2431092v.2431092h1.7066371c.3551408 0 .7019703-.0491801.9658533-.1751273zm-2.6272771-1.0877106c.128243.1311197.1969772.2966409.1969772.576861 0 .5857282-.3704335.8591338-1.0346706.8591338h-1.2828452v-.5838399h1.2776922c.1249185 0 .2135167-.0163386.269036-.0674071.0452964-.0421193.0777935-.1032866.0777935-.1775905 0-.0793122-.0351567-.1422858-.08037-.1800535-.0503663-.0415445-.1198486-.0604284-.2345442-.0604284-.6159485-.0207722-1.387318.0188839-1.387318-.842713 0-.394919.2511668-.8106104.9416675-.8106104h1.3204122v.5794884h-1.20821c-.1197655 0-.1976421.0044336-.263883.0491801-.0721419.0440897-.0989042.1095264-.0989042.1958996 0 .1027118.0612541.1725821.1441175.2027963.0694823.0238922.1441175.030871.2563198.030871l.3545589.0094419c.3575511.0086209.602983.0697061.7521704.2189707zm-5.9432264-.1681485c-.0880995.0516433-.1970603.0560769-.3252201.0560769h-.8001265v-.6115088h.8110142c.1172721 0 .2346273.0024631.3143324.0491802.0853568.0440897.1363881.1284102.1363881.2449155 0 .1165052-.0510313.2103498-.1363881.2613362zm.3977776.3388422c.1466109.0534496.2664595.1492647.3226437.2285769.0930032.132926.1064675.2569848.1091271.4969741v.5397501h-.6612451v-.3406485c0-.163797.0159577-.4063315-.1064674-.5329355-.0962445-.0975393-.2429385-.1208568-.4832175-.1208568h-.7038819v.9944408h-.6618268v-2.7227249h1.5206309c.3334483 0 .5763038.0145324.79248.1284924.207865.1240588.3386014.2940136.3386014.6046121-.0000832.4345752-.2934712.6563374-.4668444.7243193zm.8320418-1.4574238h2.198249v.5630676h-1.5423232v.4950036h1.5046732v.555514h-1.5046732v.5417206l1.5423232.0024631v.564956h-2.198249zm-4.4437893 1.2565159h-.8511577v-.6933662h.858804c.2377856 0 .4028475.095733.4028475.3338339 0 .2354736-.1574155.3595323-.4104938.3595323zm-1.5071666 1.218584-1.0112328-1.1090575 1.0112328-1.0738351zm-2.6114856-.3197941h-1.6193688v-.5417206h1.4459956v-.555514h-1.4459956v-.4950036h1.651284l.7204213.7934507zm5.2362693-1.2583222c0 .7563398-.5712339.9125012-1.1469559.9125012h-.8218189v.9132401h-1.2801856l-.8110142-.9013351-.8428464.9013351h-2.6089092v-2.7227249h2.6490527l.8103492.8924679.8377765-.8924679h2.104581c.5226961 0 1.1099708.1429427 1.1099708.8969836z"/><path d="m7.35752206 7.95311951-.45080354-1.08516537-.44822705 1.08516537zm9.93114224-.43211208c-.0905098.05427059-.197559.05607687-.325802.05607687h-.8001264v-.60461208h.8110142c.1147787 0 .2345442.00509044.3123377.04909805.0854399.03965612.1382996.12405878.1382996.24064612 0 .11896834-.0502832.21470132-.1357231.25879104zm5.7080173.43211208-.4557903-1.08516537-.4532969 1.08516537zm-10.640094 1.17457636h-.6752079l-.0024934-2.13190618-.9550486 2.13190618h-.5782985l-.95754198-2.13379457v2.13379457h-1.33961127l-.25307832-.60715729h-1.37136034l-.25565481.60715729h-.71535142l1.179453-2.72206799h.9785695l1.12019361 2.57723697v-2.57723697h1.07498028l.86196235 1.84659562.7918151-1.84659562h1.0965896v2.72206799zm2.6911077 0h-2.2002438v-2.72206799h2.2002438v.56684434h-1.5415753v.49065206h1.5045901v.55797714h-1.5045901v.54360899h1.5415753zm3.1022664-1.98896354c0 .43400047-.2932218.65822583-.4641016.72555091.1441175.05418848.2672075.14992147.325802.2292337.0930032.13538909.1090439.25632793.1090439.49943716v.53474177h-.6643202l-.0024934-.34327581c0-.163797.0158746-.39935268-.103974-.53030817-.0962446-.09573298-.2429386-.11650523-.4800592-.11650523h-.7070402v.99008921h-.6585854v-2.72206799h1.5148961c.3366066 0 .584615.0087851.7975499.13038076.2083636.12159567.3332821.299104.3332821.60272369zm1.0540359 1.98896354h-.6720497v-2.72206799h.6720497zm7.7966406 0h-.9333561l-1.2484366-2.04306991v2.04306991h-1.3413567l-.2563197-.60715729h-1.368202l-.2486734.60715729h-.7707045c-.3201503 0-.7254912-.0699524-.9550486-.30107448-.231469-.23112208-.3518993-.54418371-.3518993-1.03918726 0-.40370418.0719756-.77276058.3550576-1.06439312.2129349-.21724655.5463832-.31741313 1.0002619-.31741313h.637641v.58326509h-.6242598c-.2403621 0-.3760852.03530462-.5068215.16125179-.1122854.11461684-.1893309.33128866-.1893309.61659922 0 .29163255.0586776.50190027.1811027.63925986.1013975.10772013.2856585.14039743.4590317.14039743h.2957983l.9282863-2.14069129h.9868807l1.1151238 2.57469175v-2.57469175h1.0028384l1.1577606 1.89577578v-1.89577578h.6746261zm-21.75534351.53465968h1.1253466l.25374322-.60461208h.56807563l.25307832.60461208h2.21420672v-.46224416l.19764211.46421465h1.14944931l.1976421-.47111137v.46914088h5.5027288l-.0025765-.99247023h.1064675c.0745521.00254522.0963276.00935983.0963276.13095549v.86151474h2.8460299v-.23103998c.2295574.12151356.5866097.23103998 1.0564461.23103998h1.1973222l.2562366-.60461208h.5680757l.2505849.60461208h2.307293v-.57431579l.349406.57431579h1.8489262v-3.79647778h-1.8298103v.44836862l-.2562366-.44836862h-1.8776001v.44836862l-.2352922-.44836862h-2.5361855c-.4245399 0-.7977161.05853998-1.099166.22168015v-.22168015h-1.7501883v.22168015c-.1918242-.1681485-.4532138-.22168015-.7438591-.22168015h-6.394113l-.429028.98056518-.4405807-.98056518h-2.0139881v.44836862l-.22124614-.44836862h-1.71760805l-.79763304 1.80505112v1.99142666z"/></g></g></svg>