<svg height="21" viewBox="0 0 24 21" width="24" xmlns="http://www.w3.org/2000/svg"><g fill="#fff" transform="translate(0 .573924)"><path d="m18.181393 18.1591045c0 .5020895.1780597.9304477.5328856 1.2852736.3548259.3551741.7835323.5328856 1.2858209.5328856.5015423 0 .9302488-.1777115 1.2850746-.5328856.3551742-.3548259.5328856-.7831841.5328856-1.2852736 0-.5020896-.1775124-.9304478-.5328856-1.2856219-.3548258-.3548259-.7835323-.5325373-1.2850746-.5325373-.5022886 0-.930995.1777114-1.2858209.5325373-.3548259.3551741-.5328856.7835323-.5328856 1.2856219z"/><path d="m23.3660697 2.11492537c-.18-.17995025-.3929354-.26995025-.639204-.26995025h-17.05930351c-.00960199-.0662189-.03089552-.18686567-.06402985-.3620398-.03313433-.17527363-.05910448-.31487562-.0780597-.41915423-.01905473-.10383084-.05437811-.22940298-.10656717-.37616915-.05208955-.14686567-.11363184-.26298507-.18462686-.34800995-.07089553-.08547264-.16557214-.15865672-.2839801-.22039801-.11830846-.06134328-.25333334-.09218905-.40477612-.09218905h-3.63626866c-.24636816 0-.45940298.09014925-.63930348.26985074-.17995025.1799005-.26995025.39308458-.26995025.63925373 0 .24616916.09.45925373.26995025.63915423.18004975.17995025.39313433.26985075.63930348.26985075h2.89736319l2.51402985 11.69034822c-.01880597.037811-.11587065.2175622-.29114428.5397015-.17517413.3221393-.31482587.6037314-.41890548.8451742-.10412935.2417413-.1562189.4286567-.1562189.5611442 0 .2461692.09.4593035.26985075.6395025.18014925.179403.39313432.2697015.63935323.2697015h.90905473 12.72711438.9085075c.2461692 0 .4593035-.0902487.6391542-.2697015.1800995-.1801492.27-.3932836.27-.6395025s-.0899005-.4593532-.27-.6391542c-.179801-.179801-.3929353-.2700497-.6391542-.2700497h-13.06766169c.22736319-.4546269.34099503-.7573135.34099503-.9088558 0-.0949751-.0118408-.1992039-.03557214-.312587s-.05208955-.2390548-.08522388-.3765672c-.03318408-.1369154-.05437811-.2387562-.06383085-.3051244l14.82970153-1.7328855c.2364676-.028607.4307462-.1300498.5822388-.3054727.1515423-.1750249.2271144-.3762189.2271144-.6036318v-7.27278609c0-.24616915-.0898507-.45925373-.2699502-.63945274z"/><path d="m5.45432836 18.1591045c0 .5020895.17746268.9304477.53263681 1.2852736.35527364.3551741.78358209.5328856 1.28562189.5328856.5017413 0 .93029851-.1777115 1.28532339-.5328856.35517413-.3548259.53283582-.7831841.53283582-1.2852736 0-.5020896-.17751244-.9304478-.53283582-1.2856219-.35507463-.3548259-.78358209-.5325373-1.28532339-.5325373-.50199005 0-.93054726.1777114-1.28562189.5325373-.35497512.3551741-.53263681.7835323-.53263681 1.2856219z"/></g></svg>