<svg height="21" viewBox="0 0 35 21" width="35" xmlns="http://www.w3.org/2000/svg"><g fill="none" fill-rule="evenodd" transform="translate(.318681)"><rect fill="#fff" height="20.19906" rx="2" transform="matrix(1 0 0 -1 0 20.19906)" width="33.976324"/><path d="m7.8019796 6.93723366c0 .68235427-.18956749 1.20809475-.56870815 1.57723722s-.91209342.55371094-1.59887427.55371094h-1.3349824v-4.08851208h1.42812071c.66232016 0 1.17363494.16778952 1.53395969.50337358.36032474.33558407.54048442.82030933.54048442 1.45419034zm-1.15717291.03915128c0-.37473554-.07479213-.6525204-.22437865-.83336292-.14958651-.18084253-.37678526-.27126243-.68160306-.27126243h-.32457289v2.29034978h.24836882c.33868644 0 .58705278-.09741113.74510645-.29223632.15805368-.1948252.23707933-.49265159.23707933-.89348811zm2.08930861 2.09179688v-4.08851208h1.12048206v4.08851208zm3.3198632-1.48774858v1.48774858h-1.1148373v-4.08851208h1.3519166c1.1214285 0 1.6821343.40269484 1.6821343 1.2080966 0 .4735464-.2333138.83988684-.6999485 1.09903231l1.2023309 1.78138317h-1.2644231l-.8749356-1.48774858zm0-.83056641h.2088556c.3894894 0 .5842312-.170586.5842312-.51176314 0-.28151774-.1909787-.4222745-.5729417-.4222745h-.2201451zm5.4394653 2.31831499h-2.4498197v-4.08851208h2.4498197v.88649681h-1.3349824v.64319957h1.2361993v.88649681h-1.2361993v.77183948h1.3349824zm2.7525662-3.24116655c-.2653043 0-.4722763.10766494-.620922.32299805-.1486457.2153331-.2229675.51222733-.2229675.89069158 0 .7867582.3019909 1.18013139.9059817 1.18013139.1825144 0 .3593813-.02516842.5306062-.07550603.1712248-.05033761.3433878-.11092827.5164942-.1817738v.93403765c-.3443312.15101282-.7338148.22651811-1.1684624.22651811-.6228067 0-1.1002534-.17897549-1.4323543-.53693182-.3321008-.35795634-.4981488-.87530734-.4981488-1.55206854 0-.42320879.0804368-.79514222.2413129-1.11581143.1608761-.32066922.3923083-.56722659.6943038-.73967951.3019954-.17245293.6571404-.25867809 1.0654457-.25867809.4459372 0 .8721112.09601289 1.278535.28804154l-.3415071.86971769c-.1524089-.07084553-.3048156-.13050402-.4572245-.17897727-.1524089-.04847326-.3161049-.07270952-.4910929-.07270952zm3.9266734 3.24116655h-1.1148373v-3.18523615h-1.0075871v-.90327593h3.1271892v.90327593h-1.0047648zm-16.3707038 4.07359728c0 .6823543-.18956749 1.2080948-.56870815 1.5772372-.37914066.3691425-.91209342.553711-1.59887427.553711h-1.3349824v-4.0885121h1.42812071c.66232016 0 1.17363494.1677895 1.53395969.5033736.36032474.335584.54048442.8203093.54048442 1.4541903zm-1.15717291.0391513c0-.3747355-.07479213-.6525204-.22437865-.8333629-.14958651-.1808426-.37678526-.2712625-.68160306-.2712625h-.32457289v2.2903498h.24836882c.33868644 0 .58705278-.0974111.74510645-.2922363.15805368-.1948252.23707933-.4926516.23707933-.8934881zm4.53912831 2.0917969h-2.4498197v-4.0885121h2.4498197v.8864968h-1.33498239v.6431996h1.23619939v.8864968h-1.23619939v.7718395h1.33498239zm3.9097392-2.7881304c0 .4567672-.135943.8095913-.4078329 1.0584828-.27189.2488915-.6580808.3733354-1.1585841.3733354h-.3132834v1.3563122h-1.1148373v-4.0885121h1.4281207c.5212008 0 .9125659.1127918 1.1741071.3383789s.3923099.5462515.3923099.9620028zm-1.8797004.5313388h.2032108c.1674617 0 .3005823-.0466082.3993658-.139826.0987836-.0932178.1481746-.2218564.1481746-.3859197 0-.2759247-.1542882-.413885-.4628692-.413885h-.287882zm6.5909934.2069425c0 .6879473-.1702814 1.2108913-.5108495 1.5688477-.340568.3579563-.8391822.5369318-1.4958576.5369318-.6472675 0-1.1435297-.1799077-1.4888018-.5397284-.345272-.3598207-.5179054-.8836968-.5179054-1.5716441 0-.68049.1716927-1.2001714.5150831-1.5590599s.842475-.5383301 1.4972688-.5383301c.6566754 0 1.1543489.1780434 1.4930353.5341353.3386865.356092.5080271.879036.5080271 1.5688477zm-2.8393071 0c0 .7904869.2775305 1.1857244.8326 1.1857244.2822387 0 .4915626-.0960129.627978-.2880415.1364153-.1920287.204622-.4912533.204622-.8976829 0-.4082939-.0691475-.709849-.2074444-.9046742-.138297-.1948252-.3447985-.2922363-.6195109-.2922363-.5588326 0-.8382447.3989662-.8382447 1.1969105zm6.4752761.8081942c0 .2535524-.0649139.47867-.1947437.6753596-.1298298.1966895-.3170454.3495644-.5616522.4586293-.2446069.1090648-.5315453.1635964-.8608238.1635964-.2747123 0-.5052038-.0191094-.6914814-.0573287-.1862775-.0382193-.3800785-.104869-.5814088-.1999512v-.984375c.2126198.1081327.4337035.1924935.6632577.2530851.2295541.0605916.4402892.0908869.6322115.0908869.16558 0 .2869409-.028431.3640861-.0852939.0771453-.0568628.1157173-.1300377.1157173-.2195268 0-.0559307-.0155229-.1048693-.0465692-.1468173-.0310462-.041948-.0809076-.0843614-.1495857-.1272416s-.2516601-.1305036-.5489516-.2628729c-.2690675-.1211831-.4708652-.2386358-.605399-.3523615-.1345337-.1137257-.2342566-.2442287-.2991715-.3915128s-.0973718-.3215988-.0973718-.5229492c0-.3765999.1382948-.6702316.4148888-.8809038.2765939-.2106722.6566697-.3160067 1.1402386-.3160067.4271213 0 .8627031.0978772 1.3067587.2936346l-.3415071.8529385c-.3857262-.1752494-.7187629-.2628728-.99912-.2628728-.1448826 0-.2502501.0251684-.3161058.075506s-.0987831.1127926-.0987831.1873668c0 .0801673.0418648.151944.1255956.2153321.0837309.0633881.3109296.1789764.6816031.3467684.3556208.1584703.6025759.3285902.7408729.5103649s.2074444.410621.2074444.6865456zm.8305303 1.2416549v-4.0885121h1.120482v4.0885121zm4.0254564 0h-1.1148373v-3.1852362h-1.0075871v-.9032759h3.1271892v.9032759h-1.0047648z" fill="#303030" fill-rule="nonzero"/></g></svg>