<svg height="21" viewBox="0 0 34 21" width="34" xmlns="http://www.w3.org/2000/svg"><g fill="none" fill-rule="evenodd"><rect fill="#fff" height="20.19906" rx="2" width="33.976324"/><g fill="#26337a"><path d="m14.0967736 13.3134562 1.0446827-6.42130948h1.6698878l-1.0445872 6.42130948z"/><path d="m21.8239682 7.04975628c-.3301762-.12887569-.8494613-.26941562-1.496347-.26941562-1.6509769 0-2.8131363.87140449-2.8227828 2.11919429-.010506.9229927.8293089 1.43773685 1.4624412 1.74451595.6507061.3144605.8693273.5156924.8667486.7968671-.004489.4300598-.5193806.6271192-.9995067.6271192-.6685664 0-1.0237662-.0970124-1.5729457-.3367458l-.2148008-.1022281-.2335207 1.4373575c.3893921.1788517 1.1112528.3340905 1.8604292.342246 1.7546047 0 2.8947014-.8608782 2.9080727-2.1933523.0060171-.7319078-.4389616-1.28667066-1.4026523-1.74470567-.5835629-.29777018-.9417235-.49501921-.9376165-.79639297.000382-.26685518.302574-.55258178.9566229-.55258178.5462187-.00872448.941628.11626313 1.2497416.24675095l.1499499.0733994z"/><path d="m24.0475245 11.036842c.1383932-.3690833.6652235-1.79487135.6652235-1.79487135-.009742.01697479.1376292-.37192823.221964-.61260998l.1127012.55381459s.3204343 1.53266294.3864314 1.85366674zm2.0601395-4.13815193h-1.2905241c-.4002803 0-.6998935.11360786-.8752489.5322879l-2.4799037 5.88475423h1.7539361s.2861464-.7916515.3510929-.9653823c.1913055 0 1.8955767.0033191 2.1388393.0033191.050047.2240862.2033397.9620632.2033397.9620632h1.5499279z"/><path d="m12.6958405 6.8975521-1.6344537 4.3777905-.1750689-.8898966c-.3045797-1.0253156-1.25270236-2.1366432-2.31323965-2.69349239l1.49529645 5.61590759 1.7673074-.0010432 2.6297581-6.4092659z"/></g><path d="m9.54412315 6.89318986h-2.69288983l-.0221582.13304827c2.09538252.53190857 3.48179818 1.81582907 4.05724278 3.35920787l-.5851866-2.95048512c-.1009535-.40692096-.39435865-.52754633-.75700815-.54177102" fill="#ec982d"/></g></svg>