<svg height="21" viewBox="0 0 35 21" width="35" xmlns="http://www.w3.org/2000/svg" xmlns:xlink="http://www.w3.org/1999/xlink"><mask id="a" fill="#fff"><path d="m.47190268 3.95390084c-.12646642.0043544-.24880903-.04222226-.3357395-.12782553-.08510199-.08641803-.13048323-.20040183-.12643724-.31757222-.00118656-.1180123.03016015-.23433172.09103481-.33785049.05348296-.09256487.11880238-.17876563.19451883-.2567374l1.87944092-1.9778557h-1.63823757c-.15872736 0-.27232636-.05069568-.33457239-.15136281-.06060234-.10112883-.09084029-.21557432-.08753347-.33133248-.00437667-.11155765.03015042-.22144053.09842653-.31322687.0676731-.08686161.17779993-.136136.29294535-.13108454h2.89444017c.12238153-.00525062.24172855.0363651.33029298.11515161.08208694.07640563.12371397.18503923.12371397.32264179.00346244.10714894-.02054119.21352839-.07002678.31032998-.04749177.08433588-.10703398.16229859-.17701213.23175167l-1.95724846 2.03760418h1.85454252c.11156627-.0025891.21777355.04449451.28594267.1267392.07263333.09195834.10929041.20427643.10387306.31829644.00530064.11879989-.02529717.23659492-.08831155.34002316-.06341314.09451123-.17584502.14267212-.33379431.14267212z" fill="#fff" fill-rule="evenodd"/></mask><mask id="b" fill="#fff"><path d="m.6808159 5.51786254c-.51508586 0-.62246025-.24623616-.62246025-.45263999v-3.01277178c0-.15751872.05096393-.28498214.15211372-.37876914.10114979-.09378701.26221138-.14158579.4792944-.14158579.1828477 0 .3275697.03874598.43066468.11551372.10309498.07676775.16028352.20061005.16028352.35993932v3.04174074c0 .16548518-.05602143.28715481-.16650812.36211199s-.25248544.10646093-.43338795.10646093zm0-4.30913271c-.20074343 0-.36530636-.05467891-.48979841-.16258828-.12449205-.10790938-.18946134-.25673741-.18946134-.43960396-.00478516-.16211754.06365629-.31867666.18868326-.4316375.12332494-.11261683.28866595-.17019263.49057649-.17019263.16650812.00033495.32834778.05118453.46100962.14484479.14472201.09921869.21825013.2534784.21825013.45843379 0 .18286655-.06380218.33097036-.18946134.43996607-.12565916.1089957-.29022209.16186406-.48979841.16186406z" fill="#fff" fill-rule="evenodd"/></mask><mask id="c" fill="#fff"><path d="m.5909482 5.28725151c-.48162862 0-.58355648-.25021938-.58355648-.46024434v-4.2617413c-.00415298-.13349258.05101256-.26265793.15250276-.35705147.10076075-.09378701.26221138-.14158579.47929439-.14158579.13502525-.00127645.26841653.02752956.38903766.08400998.12799339.06119693.19451883.181056.19451883.35306824.02593908-.02776493.05381363-.05625409.08364309-.08545843.08176599-.07725659.17318984-.14509827.27232636-.20206754.24095048-.13998344.52013362-.21239679.80414084-.20857651.27216102-.00492472.54179329.04939208.78741222.15860505.22478596.1032834.42050108.25407588.57149632.44033724.15736573.19921591.27225828.42464873.33846276.66411339.0757359.27058819.112889.54927863.11048669.82888341.00278162.28482824-.03996389.5684434-.12682627.84155732-.07675713.24260598-.20273725.46926998-.37114193.66774356-.16225788.18701274-.36787401.33742501-.60145222.43997513-.25414857.10847065-.53119201.16254302-.81075447.15824294-.18721465.0050062-.37399163-.01948163-.55243348-.0724224-.128149-.04044791-.24995669-.09658432-.36219406-.16693363-.06083576-.03844724-.11693499-.08302323-.16728619-.13290415v.97047824c0 .16874419-.04940778.29331072-.14705623.37007846s-.24781699.1118926-.46062059.1118926zm1.48067732-4.31424753c-.13256458-.00298743-.2637189.02581858-.38086786.08364787-.11023382.05818234-.20472134.13906911-.27621674.23645913-.08032655.11019973-.1389448.23281085-.17312176.36212104-.04026539.15026743-.05999933.30466293-.05874468.45952012 0 .35270613.07780753.6355156.23342259.8408331.15561507.20532655.36686251.30128623.65708461.30128623.29022209 0 .50146954-.10283981.64813673-.31468438.1466672-.21183551.22487227-.49392075.22487227-.82743495.0004778-.15444982-.01990778-.30835647-.06069838-.45807167-.03417695-.12874892-.09153083-.25118804-.16962041-.36212105-.06946268-.09752581-.16279281-.17831299-.27232637-.2357349-.11398803-.05787455-.24207868-.087441-.37192-.08582054z" fill="#fff" fill-rule="evenodd"/></mask><mask id="d" fill="#fff"><path d="m6.58368427 2.48155348-1.60361322 1.34271127h-3.97168544c-.37046111-.00046169-.72829795.12524548-1.00605138.3534213l2.00315489-1.67766486.03073398-.02534784 2.50968192-2.10350856c.40466725-.33881914.97279839-.45095617 1.49037409-.29417073.51758543.15678544.90598117.55868449 1.01888963 1.05428907.11291818.49561363-.06681722 1.00964065-.47148447 1.34845979z" fill="#fff" fill-rule="evenodd"/></mask><mask id="e" fill="#fff"><path d="m.00058356 1.45803047v-.07927559c.02255213-.76502921.69591331-1.37875488 1.52327694-1.37875488.84160517 0 1.52386051.6350358 1.52386051 1.41839267 0 .78335688-.68225534 1.41839268-1.52386051 1.41839268-.82736363 0-1.50072481-.61372567-1.52327694-1.37875488z" fill="#fff" fill-rule="evenodd"/></mask><mask id="f" fill="#fff"><path d="m.00058356 1.45567286v-.06495118c.00922751-.37723215.17918708-.75021846.50438732-1.02245378l.01283824-.01086336c.27775344-.22817582.63559027-.353883 1.00605138-.35342258l3.97207448.00036338-2.95318485 2.4728628c-.62566981.52376784-1.58905349.4762678-2.15176728-.10609882-.2534558-.26230775-.38239769-.58838743-.39039929-.91543647z" fill="#fff" fill-rule="evenodd"/></mask><mask id="g" fill="#fff"><path d="m3.97624691.00506957.58432483-.00144845c.83197649.01237518 1.49946785.62856305 1.49946785 1.41821162s-.62055397 1.40513937-1.49946785 1.41823544h-4.55668136c.37610215.00099009.73920072-.12805757 1.01886044-.36213582z" fill="#fff" fill-rule="evenodd"/></mask><mask id="h" fill="#fff"><path d="m.2635323.18018069v.7457376c0 .02179067-.00355329.0404814-.01063708.0561178-.00710658.0156136-.01987336.0234318-.03833451.0234318-.03358541 0-.0503838-.02650893-.0503838-.0795496v-.7457376h-.11994625c-.01372344 0-.02342665-.0085248-.02909824-.0255744-.00568298-.0170268-.00851878-.0369256-.00851878-.0596508s.00296107-.0426012.00887183-.0596508.01502175-.0255744.0273216-.0255744h.34776666c.01183291 0 .02081863.0085248.02696855.0255744s.00922488.0369256.00922488.0596508-.0028358.042624-.00850739.0596508c-.00568298.0170496-.01538619.0255744-.02909824.0255744zm.64798533.1264132-.11214495.6207604c-.004248.02461707-.01100153.0418946-.02021502.0518326-.00923627.009938-.01975947.014907-.03159238.014907-.01702617 0-.02980434-.00686086-.03832312-.0205826-.00851878-.01374453-.01513564-.03291393-.01987335-.057531l-.10574449-.5625v.572438c0 .02179067-.0034394.0404814-.01029542.0561178-.00685602.0156136-.01952031.0234318-.03797007.0234318-.0175045 0-.02969046-.00663293-.03654648-.019876-.00686741-.01326587-.01029542-.03457786-.01029542-.063936v-.8181756c0-.03503373.00591076-.06012947.01774366-.0752872s.02791381-.0227252.04826549-.0227252c.02081863 0 .03678564.0078182.04790106.0234318.01111541.0156364.01904198.037655.02377969.0660558l.12135845.6960248.11639296-.6903492c.00568298-.0340764.01479398-.05846553.02733299-.0731446.012539-.01467907.02969045-.0220186.05145434-.0220186.01987336 0 .03548732.00733953.0468419.0220186s.01702617.03717633.01702617.067469v.8309628c0 .02179067-.00342801.0404814-.01028403.0561178-.00686742.0156136-.01952031.0234318-.03797007.0234318-.01703757 0-.02909824-.00733953-.03619343-.0220186-.00710658-.01467906-.01064848-.03574033-.01064848-.0632066z" fill="#fff" fill-rule="evenodd"/></mask><g fill="none" fill-rule="evenodd" transform="translate(.308015)"><rect fill="#fff" height="20.19906" rx="2" transform="matrix(1 0 0 -1 0 20.19906)" width="33.976324"/><g fill="#18295e"><path d="m.00953142 3.95534929h3.88531909v-3.94774494h-3.88531909z" mask="url(#a)" transform="translate(15.083609 8.244838)"/><path d="m.00058356 5.51822465h1.35968661v-5.51424142h-1.35968661z" mask="url(#b)" transform="translate(19.421379 6.73302)"/><path d="m.00680816 5.28792142h4.1841v-5.28067918h-4.1841z" mask="url(#c)" transform="translate(21.454101 8.118098)"/></g><path d="m.00213971 4.17768605h7.08670996v-4.17044381h-7.08670996z" fill="#f1583f" mask="url(#d)" transform="translate(6.339988 6.760178)"/><path d="m.00058356 2.83678535h3.04733197v-2.83750957h-3.04733197z" fill="#f99519" mask="url(#e)" transform="translate(5.824513 6.769231)"/><path d="m.00058356 2.84185491h5.49593498v-2.8385959h-5.49593498z" fill="#18295e" mask="url(#f)" transform="translate(5.824513 10.58046)"/><path d="m.00291778 2.84076858h6.05731633v-2.83750957h-6.05731633z" fill="#02afb8" mask="url(#g)" transform="translate(7.34176 10.58046)"/><path d="m.00564105.40339276h.8554938v-.3986853h-.8554938z" fill="#18295e" mask="url(#h)" transform="translate(25.62653 7.746934)"/></g></svg>