<?xml version="1.0" encoding="UTF-8"?>
<!DOCTYPE svg PUBLIC "-//W3C//DTD SVG 1.1//EN" "http://www.w3.org/Graphics/SVG/1.1/DTD/svg11.dtd">
<!-- Creator: CorelDRAW 2020 (64-Bit) -->
<svg xmlns="http://www.w3.org/2000/svg" xml:space="preserve" width="70.3248mm" height="56.7899mm" version="1.1" style="shape-rendering:geometricPrecision; text-rendering:geometricPrecision; image-rendering:optimizeQuality; fill-rule:evenodd; clip-rule:evenodd"
viewBox="0 0 7032.46 5678.97"
 xmlns:xlink="http://www.w3.org/1999/xlink"
 xmlns:xodm="http://www.corel.com/coreldraw/odm/2003">
 <defs>
  <style type="text/css">
   <![CDATA[
    .fil0 {fill:#182A59}
   ]]>
  </style>
 </defs>
 <g id="Слой_x0020_1">
  <metadata id="CorelCorpID_0Corel-Layer"/>
  <g id="_2423068797168">
   <path class="fil0" d="M811.29 1481.47l1763.65 0c11.04,132.64 140.48,375.12 196.51,508.95l650.04 1536.9 -1199.29 0c-26.2,-112.45 -175.11,-493.83 -282.19,-493.83l-1128.74 0 0 -1552.02 0.01 0zm-811.29 2998.22l0 -1275.05c31.93,-179.82 128.51,-171.16 388.01,-171.16l0 -1693.11c0,-128.91 97.34,-282.19 211.64,-282.19l2045.84 0c204.97,0 223.86,103.37 284.2,244.89l931.86 2172.17c73.64,180.8 53.78,209.99 53.78,440.06 -234.93,-54.74 -176.72,-35.29 -458.56,-35.29 -427.42,0 -881.82,454.41 -881.82,881.84l0 317.47 -1128.74 0c-6.2,-277.89 -108.42,-442.45 -254.65,-591.92 -410.39,-419.5 -810.68,-262.78 -1191.55,-7.72l-0.02 0z"/>
   <path class="fil0" d="M4232.79 2151.66l528.11 1306.09c232.49,530.51 127.18,511.28 1494.51,-94.76 188.98,-83.75 251.99,-81.06 375.96,-223.69l-362.51 -907.32c-69.45,-161.94 -118.41,-284.12 -189.81,-445.11 -86.58,-195.21 -93.92,-300.71 -258.97,-411.23l-1244.61 519.05c-136.11,53.4 -342.68,81.48 -342.68,256.96l0 0.01z"/>
   <path class="fil0" d="M4726.6 4585.51c128.61,0 1132.46,-451.98 1306.09,-528.11l957.31 -422.35c97.83,-110.79 7.18,-284.1 -76.46,-284.1 -122.25,0 -899.27,350.59 -1063.22,418.27 -178.56,73.71 -924.14,417.55 -1053.18,428.29 -11.08,-133.15 -157.58,-415.31 -206.63,-534.11l-1368.62 -3181.62c-94,-211.31 -137.56,-481.78 -329.51,-481.78 -134.93,0 -168.09,136.25 -148.02,217.01l1779.37 4148.06c45.06,110.9 57.86,220.44 202.84,220.44l0.02 0z"/>
   <path class="fil0" d="M3597.87 5678.97c841.57,0 1086.73,-1249.69 279.03,-1548.9 -366.09,-135.61 -667.34,-31.81 -889.15,198.05 -490.4,508.22 -127.81,1350.85 610.12,1350.85z"/>
   <path class="fil0" d="M-0 4973.52c0,1020.88 1234.56,813.23 1234.56,105.82 0,-877.19 -1234.56,-763.35 -1234.56,-105.82z"/>
  </g>
 </g>
</svg>
