<?xml version="1.0" encoding="UTF-8"?><svg xmlns="http://www.w3.org/2000/svg" width="35" height="21" viewBox="0 0 35 21"><g fill="none" fill-rule="evenodd" transform="translate(-1065.000000, -3453.000000) translate(1065.534799, 3453.000000)"><rect width="33.976" height="20.199" fill="#FFF" rx="2"/><path fill="#C00" d="M19.070442,10.2629409 C19.070442,13.8914513 16.1020493,16.8325496 12.440099,16.8325496 C8.778044,16.8325496 5.80944173,13.8914513 5.80944173,10.2629409 C5.80944173,6.63453427 8.778044,3.69312451 12.440099,3.69312451 C16.1020493,3.69312451 19.070442,6.63453427 19.070442,10.2629409"/><path fill="#F90" d="M21.3419241,3.69312451 C19.6283058,3.69312451 18.0674608,4.33713866 16.89054,5.39364163 C16.6511113,5.60897055 16.4276095,5.8415341 16.2212921,6.08915198 L17.5609406,6.08915198 C17.7438914,6.30987971 17.912487,6.54192414 18.0664129,6.78497381 L15.715715,6.78497381 C15.5750964,7.00829711 15.4472614,7.24034154 15.3336768,7.48079564 L18.4482416,7.48079564 C18.5547009,7.70598775 18.6483768,7.93792836 18.7290595,8.176306 L15.0528588,8.176306 C14.9763674,8.40284781 14.9118211,8.63499607 14.860268,8.87171253 L18.9214408,8.87171253 C19.0186793,9.32022795 19.070442,9.78556269 19.070442,10.2629409 C19.070442,10.9922976 18.9504656,11.6943488 18.7290595,12.3499911 L15.0528588,12.3499911 C15.1335416,12.5881611 15.2272174,12.8204132 15.3334672,13.0459167 L18.4482416,13.0459167 C18.3344474,13.2857479 18.2072411,13.518 18.0657842,13.7416347 L15.715715,13.7416347 C15.8690123,13.9839577 16.0379222,14.2163136 16.2212921,14.4367298 L17.5605214,14.4367298 C17.3546232,14.6845553 17.1309119,14.9171189 16.8907496,15.1324478 C18.0675655,16.1889508 19.6283058,16.8325496 21.3419241,16.8325496 C25.0037696,16.8325496 27.9722671,13.8914513 27.9722671,10.2629409 C27.9722671,6.63484574 25.0037696,3.69312451 21.3419241,3.69312451"/><path fill="#006" d="M10.8917232 10.9822267C10.8161748 10.9737132 10.7828538 10.9710138 10.7309863 10.9710138 10.322962 10.9710138 10.1166446 11.1097214 10.1166446 11.3837103 10.1166446 11.5524227 10.2173409 11.6596719 10.3745152 11.6596719 10.6678023 11.6596719 10.8791493 11.3830874 10.8917232 10.9822267L10.8917232 10.9822267zM11.415323 12.1897922L10.8186896 12.1897922 10.8324161 11.9089509C10.6505131 12.1307169 10.4077313 12.2366164 10.0779798 12.2366164 9.68797807 12.2366164 9.42046752 11.9349067 9.42046752 11.4964621 9.42046752 10.8364592 9.88559849 10.4515873 10.6841484 10.4515873 10.7659838 10.4515873 10.8705571 10.4590626 10.9776451 10.4724557 10.9998591 10.3829603 11.0057269 10.3449611 11.0057269 10.2966834 11.0057269 10.1172772 10.8804066 10.0499999 10.5441586 10.0499999 10.1919835 10.0464699 9.90152548 10.1333698 9.78217784 10.1721996 9.7897222 10.1271404 9.88203587 9.56265468 9.88203587 9.56265468 10.2406027 9.45820873 10.4772023 9.41917128 10.7434555 9.41917128 11.3616742 9.41917128 11.6891205 9.69409461 11.688387 10.2138326 11.6896444 10.3532669 11.6662779 10.5246787 11.6301278 10.7508052 11.5676772 11.1432562 11.4335552 11.9849494 11.415323 12.1897922L11.415323 12.1897922zM9.11921689 12.1897922L8.39925408 12.1897922 8.81188886 9.62827082 7.89095259 12.1897922 7.40046417 12.1897922 7.33979492 9.6425984 6.90641314 12.1897922 6.23265956 12.1897922 6.79544813 8.85738496 7.83059768 8.85738496 7.89315303 10.7226692 8.52467913 8.85738496 9.67592805 8.85738496 9.11921689 12.1897922M22.2313207 10.9822267C22.1557723 10.9737132 22.1228705 10.9710138 22.0711078 10.9710138 21.6627691 10.9710138 21.4566613 11.1097214 21.4566613 11.3837103 21.4566613 11.5524227 21.5569385 11.6596719 21.7145318 11.6596719 22.0076094 11.6596719 22.2190612 11.3830874 22.2313207 10.9822267L22.2313207 10.9822267zM22.7552349 12.1897922L22.158811 12.1897922 22.172328 11.9089509C21.990425 12.1307169 21.747748 12.2366164 21.418206 12.2366164 21.0276804 12.2366164 20.7604842 11.9349067 20.7604842 11.4964621 20.7604842 10.8364592 21.2258247 10.4515873 22.0241651 10.4515873 22.1058957 10.4515873 22.2102594 10.4590626 22.3174522 10.4724557 22.339771 10.3829603 22.345534 10.3449611 22.345534 10.2966834 22.345534 10.1172772 22.2202138 10.0499999 21.8839657 10.0499999 21.5317906 10.0464699 21.2414374 10.1333698 21.1216706 10.1721996 21.1296341 10.1271404 21.2221573 9.56265468 21.2221573 9.56265468 21.5805146 9.45820873 21.8173238 9.41917128 22.0831578 9.41917128 22.7017956 9.41917128 23.0288228 9.69409461 23.0281941 10.2138326 23.0294515 10.3532669 23.0062945 10.5246787 22.9699349 10.7508052 22.9076939 11.1432562 22.7732575 11.9849494 22.7552349 12.1897922L22.7552349 12.1897922zM14.6143427 12.1485744C14.4172462 12.2100377 14.2637394 12.2366164 14.0971347 12.2366164 13.7292422 12.2366164 13.5283735 12.0271015 13.5283735 11.6411914 13.5232391 11.5213796 13.5812888 11.2062768 13.6269741 10.9188947 13.6686777 10.6656704 13.9392269 9.06949537 13.9392269 9.06949537L14.6545793 9.06949537 14.5710674 9.47970009 15.0032965 9.47970009 14.9057437 10.1310857 14.4720476 10.1310857C14.3889548 10.6463593 14.2704455 11.2884008 14.2690833 11.3735357 14.2690833 11.5132814 14.3443173 11.5743294 14.5156373 11.5743294 14.5976822 11.5743294 14.6611806 11.5660235 14.7096951 11.5487889L14.6143427 12.1485744M16.808076 12.1266678C16.5622555 12.2011089 16.3253415 12.2374469 16.0739675 12.2366164 15.2729028 12.2355781 14.8553432 11.8213243 14.8553432 11.0275974 14.8553432 10.1012885 15.3864873 9.41917128 16.1077075 9.41917128 16.6975301 9.41917128 17.0744339 9.80103231 17.0744339 10.3996758 17.0744339 10.5987045 17.0486573 10.7926459 16.986102 11.0663234L15.5612651 11.0663234C15.5131698 11.4595011 15.7669538 11.62323 16.1834655 11.62323 16.4392404 11.62323 16.6703913 11.5709032 16.927214 11.4528564L16.808076 12.1266678 16.808076 12.1266678zM16.4059195 10.5201105C16.410006 10.463527 16.4816775 10.0362953 16.0727101 10.0362953 15.8451218 10.0362953 15.6819749 10.2084338 15.615857 10.5201105L16.4059195 10.5201105 16.4059195 10.5201105zM11.8470282 10.3365514C11.8470282 10.6790635 12.0146808 10.9154685 12.3950424 11.0931097 12.6864435 11.229014 12.7318144 11.2691935 12.7318144 11.3922238 12.7318144 11.5609362 12.6031411 11.6375576 12.3184462 11.6375576 12.1035366 11.6375576 11.9038205 11.6041266 11.6734031 11.5303084 11.6734031 11.5303084 11.5789938 12.1279137 11.5744881 12.156465 11.7380541 12.1915572 11.8839118 12.2242614 12.3235805 12.2366164 13.0830465 12.2366164 13.4338594 11.9500648 13.4338594 11.3307606 13.4338594 10.9584513 13.2871634 10.7399038 12.9265009 10.5754482 12.6248312 10.438298 12.5899385 10.4075664 12.5899385 10.2811099 12.5899385 10.1346157 12.7097052 10.0597593 12.9422183 10.0597593 13.0835704 10.0597593 13.2764756 10.0747098 13.4595312 10.1003541L13.561904 9.47180954C13.3756001 9.44242763 13.092896 9.41917128 12.928387 9.41917128 12.1232358 9.41917128 11.8444087 9.83581302 11.8470282 10.3365514M20.308975 9.49070533C20.5089006 9.49070533 20.6956236 9.54220155 20.9522368 9.67063061L21.0701175 8.94739951C20.9642868 8.9062856 20.5932508 8.66531238 20.2789023 8.66531238 19.7973205 8.66531238 19.3897153 8.90244414 19.1035534 9.29292249 18.6856794 9.15587612 18.5137308 9.43287591 18.3033269 9.70904513L18.1162896 9.7522355C18.1304352 9.66139036 18.1433235 9.57116817 18.139237 9.47970009L17.4778478 9.47970009C17.3877346 10.3186939 17.2277312 11.1681737 17.1025157 12.007479L17.0697187 12.1897922 17.7898911 12.1897922C17.910077 11.4158954 17.9757758 10.9205559 18.0158028 10.5849999L18.2869808 10.4361177C18.3277413 10.2865087 18.4542142 10.2362584 18.7086269 10.2423839 18.6754107 10.4190907 18.6573881 10.6052454 18.6573881 10.7978371 18.6573881 11.6845894 19.140856 12.2366164 19.9154107 12.2366164 20.115022 12.2366164 20.2864467 12.2106606 20.5518616 12.1390227L20.6780201 11.3796612C20.4393248 11.4958392 20.2439049 11.5505539 20.0667171 11.5505539 19.6482145 11.5505539 19.3949544 11.2443798 19.3949544 10.7386579 19.3949544 10.0047331 19.7713343 9.49070533 20.308975 9.49070533M26.4033538 8.85738496L26.2433504 9.82013575C26.0468826 9.56358909 25.8354309 9.37774589 25.5562894 9.37774589 25.1931121 9.37774589 24.8625223 9.65059277 24.646041 10.0523878 24.3445808 9.99040549 24.0330615 9.88502513 24.0330615 9.88502513L24.0328519 9.88762071C24.0568472 9.66305153 24.0670111 9.52642045 24.0646011 9.47970009L23.4033167 9.47970009C23.3135178 10.3186939 23.1533048 11.1681737 23.0281941 12.007479L22.9950828 12.1897922 23.7154647 12.1897922C23.8127032 11.5643624 23.8869942 11.0444167 23.9417956 10.6326546 24.1880353 10.4121346 24.3112599 10.2203735 24.5594904 10.2328322 24.4493636 10.4967503 24.3851318 10.8005365 24.3851318 11.1122131 24.3851318 11.7894506 24.7307055 12.2366164 25.2542005 12.2366164 25.5180437 12.2366164 25.7204841 12.1463942 25.917895 11.9375023L25.8839453 12.1895845 26.5650337 12.1895845 27.1133622 8.85738496 26.4033538 8.85738496 26.4033538 8.85738496zM25.5031645 11.5637394C25.2581823 11.5637394 25.1341194 11.3837103 25.1341194 11.0294662 25.1341194 10.4967503 25.3660038 10.119146 25.6924023 10.119146 25.9397946 10.119146 26.0739166 10.3056122 26.0739166 10.6498893 26.0739166 11.1871733 25.8381552 11.5637394 25.5031645 11.5637394L25.5031645 11.5637394z"/><path fill="#FFF" d="M9.32626775 11.9920093L8.60651451 11.9920093 9.0190445 9.43048798 8.0983178 11.9920093 7.60761982 11.9920093 7.54705535 9.44533468 7.11356879 11.9920093 6.43981521 11.9920093 7.00260378 8.65991359 8.03775333 8.65991359 8.06667339 10.7226692 8.76515571 8.65991359 9.8830837 8.65991359 9.32626775 11.9920093M11.0988788 10.7848592C11.0234352 10.776138 10.9901143 10.7737501 10.9382468 10.7737501 10.5302224 10.7737501 10.3238003 10.91225 10.3238003 11.1860313 10.3238003 11.354536 10.4246013 11.4624082 10.5818804 11.4624082 10.8750627 11.4624082 11.0864097 11.1858237 11.0988788 10.7848592L11.0988788 10.7848592zM11.6223738 11.9920093L11.0260548 11.9920093 11.0396765 11.7113757C10.8577736 11.9330379 10.6149917 12.0390412 10.2852402 12.0390412 9.89513372 12.0390412 9.62772795 11.7369162 9.62772795 11.2985754 9.62772795 10.6384687 10.0929637 10.2541159 10.8915136 10.2541159 10.9731394 10.2541159 11.0777127 10.2614874 11.1849055 10.275192 11.2071195 10.1854889 11.2129873 10.1473859 11.2129873 10.0989005 11.2129873 9.91959819 11.0876671 9.85284 10.751419 9.85284 10.3991391 9.84868708 10.1087859 9.93558694 9.98933348 9.97431292 9.99698263 9.92946138 10.0891915 9.36497566 10.0891915 9.36497566 10.4478631 9.26073736 10.6844628 9.22138844 10.9507159 9.22138844 11.5688298 9.22138844 11.8961714 9.49662324 11.8956475 10.0161536 11.8968001 10.1553803 11.8736431 10.3276226 11.8373882 10.5531262 11.7748329 10.9452657 11.6407108 11.787478 11.6223738 11.9920093L11.6223738 11.9920093zM21.2771683 8.74961667L21.1592876 9.47274395C20.9022554 9.34473018 20.7160563 9.29292249 20.5163402 9.29292249 19.9789091 9.29292249 19.6019005 9.80757316 19.6019005 10.5416019 19.6019005 11.0473238 19.8552654 11.3528749 20.273768 11.3528749 20.4510605 11.3528749 20.6468996 11.2985754 20.885071 11.1819822L20.7585981 11.9413437C20.4936023 12.0128778 20.3220729 12.0390412 20.1225664 12.0390412 19.3474878 12.0390412 18.8647533 11.4869104 18.8647533 10.6003657 18.8647533 9.40910044 19.5321151 8.57654371 20.486058 8.57654371 20.8004065 8.57654371 21.171652 8.70850276 21.2771683 8.74961667M22.4383716 10.7848592C22.3633471 10.776138 22.3299214 10.7737501 22.2781587 10.7737501 21.8703439 10.7737501 21.663817 10.91225 21.663817 11.1860313 21.663817 11.354536 21.7645133 11.4624082 21.9216875 11.4624082 22.2147651 11.4624082 22.4263216 11.1858237 22.4383716 10.7848592L22.4383716 10.7848592zM22.9622858 11.9920093L22.3659667 11.9920093 22.3794837 11.7113757C22.1975807 11.9330379 21.9547989 12.0390412 21.6253617 12.0390412 21.2348361 12.0390412 20.9677446 11.7369162 20.9677446 11.2985754 20.9677446 10.6384687 21.4325613 10.2541159 22.2313207 10.2541159 22.3129466 10.2541159 22.4173103 10.2614874 22.5243983 10.275192 22.5467171 10.1854889 22.5525849 10.1473859 22.5525849 10.0989005 22.5525849 9.91959819 22.427579 9.85284 22.0911213 9.85284 21.7391558 9.84868708 21.4489074 9.93558694 21.3292454 9.97431292 21.3367898 9.92946138 21.4291034 9.36497566 21.4291034 9.36497566 21.787775 9.26073736 22.0241651 9.22138844 22.2904183 9.22138844 22.9085322 9.22138844 23.2361881 9.49662324 23.2353498 10.0161536 23.2368168 10.1553803 23.2134502 10.3276226 23.1771953 10.5531262 23.1148495 10.9452657 22.9807275 11.787478 22.9622858 11.9920093L22.9622858 11.9920093zM14.8213936 11.9508954C14.6245066 12.0123587 14.4707902 12.0390412 14.3043951 12.0390412 13.9363978 12.0390412 13.7354243 11.8294225 13.7354243 11.4439277 13.7303948 11.3237006 13.7885492 11.0091169 13.8343393 10.7214233 13.8757285 10.4679913 14.1463826 8.872024 14.1463826 8.872024L14.8619445 8.872024 14.778223 9.2821249 15.1455916 9.2821249 15.0477245 9.93330283 14.6792033 9.93330283C14.5961105 10.4490956 14.4776011 11.0907218 14.4761341 11.1758566 14.4761341 11.3160177 14.5516826 11.3766503 14.7227929 11.3766503 14.8048379 11.3766503 14.8682315 11.368656 14.9169555 11.3510061L14.8213936 11.9508954M17.015546 11.9294041C16.7696207 12.0040528 16.5321828 12.0392488 16.2811231 12.0390412 15.4799536 12.038522 15.0627084 11.6237491 15.0627084 10.830126 15.0627084 9.90350563 15.5937478 9.22138844 16.3144441 9.22138844 16.9048953 9.22138844 17.2815896 9.60324948 17.2815896 10.2026197 17.2815896 10.4012331 17.2553939 10.5950707 17.193572 10.868852L15.7685255 10.868852C15.7202207 11.2620297 15.974319 11.4260701 16.3904116 11.4260701 16.6463961 11.4260701 16.8774422 11.3735357 17.1345793 11.2551774L17.015546 11.9294041 17.015546 11.9294041zM16.6132847 10.3223277C16.6171617 10.2656403 16.6891475 9.83861625 16.2802849 9.83861625 16.052487 9.83861625 15.8893401 10.0110663 15.8230126 10.3223277L16.6132847 10.3223277 16.6132847 10.3223277zM12.0540791 10.1387686C12.0540791 10.4819036 12.2219412 10.7177895 12.6024076 10.8956383 12.8938087 11.0314388 12.9389701 11.0716183 12.9389701 11.1947524 12.9389701 11.3636725 12.8104015 11.4398786 12.525497 11.4398786 12.310797 11.4398786 12.1109762 11.4068628 11.8804539 11.3332523 11.8804539 11.3332523 11.7861494 11.9304423 11.7817485 11.9585783 11.9452097 11.9940858 12.0911722 12.0264786 12.5306314 12.0390412 13.2903069 12.0390412 13.6411198 11.7525935 13.6411198 11.1332892 13.6411198 10.7607722 13.4942143 10.5423286 13.1336566 10.3782883 12.831882 10.2407228 12.7971989 10.2103026 12.7971989 10.0836386 12.7971989 9.93714428 12.9168609 9.86176878 13.1495836 9.86176878 13.2906212 9.86176878 13.483736 9.87734223 13.6666868 9.90288269L13.7691644 9.274442C13.5827558 9.24526773 13.3002613 9.22138844 13.1356474 9.22138844 12.3302866 9.22138844 12.0516691 9.63813401 12.0540791 10.1387686M26.7721893 11.9920093L26.0913105 11.9920093 26.1250506 11.7398232C25.927535 11.948819 25.7251993 12.0390412 25.4613562 12.0390412 24.9382803 12.0390412 24.5921826 11.5923946 24.5921826 10.9144303 24.5921826 10.0130389 25.1287755 9.2532621 25.7634451 9.2532621 26.0425865 9.2532621 26.2539335 9.36622154 26.4508204 9.62287203L26.6105094 8.65991359 27.3204131 8.65991359 26.7721893 11.9920093 26.7721893 11.9920093zM25.7102154 11.3658528C26.0456252 11.3658528 26.2809675 10.9894943 26.2809675 10.4527294 26.2809675 10.1083484 26.1469502 9.92125936 25.899558 9.92125936 25.5730547 9.92125936 25.3412751 10.2989675 25.3412751 10.831891 25.3412751 11.1865504 25.4654427 11.3658528 25.7102154 11.3658528L25.7102154 11.3658528zM23.6106819 9.2821249C23.5206734 10.120911 23.3605653 10.9703909 23.2353498 11.8098L23.2025528 11.9920093 23.9225156 11.9920093C24.1800718 10.3347864 24.2419984 10.0113777 24.646041 10.0517649 24.7102729 9.71257511 24.8300396 9.41553747 24.9192098 9.26582469 24.6177496 9.20353088 24.4493636 9.3723471 24.228691 9.69316021 24.2462945 9.55434884 24.2780437 9.41969039 24.2720711 9.2821249L23.6106819 9.2821249M17.6853178 9.2821249C17.5948902 10.120911 17.4345725 10.9703909 17.3095666 11.8098L17.2768743 11.9920093 17.9970467 11.9920093C18.2547077 10.3347864 18.3164248 10.0113777 18.7198386 10.0517649 18.7844896 9.71257511 18.904466 9.41553747 18.9934266 9.26582469 18.6922808 9.20353088 18.5235804 9.3723471 18.3033269 9.69316021 18.3207209 9.55434884 18.3526796 9.41969039 18.3463926 9.2821249L17.6853178 9.2821249"/></g></svg>