<?xml version="1.0" encoding="UTF-8"?>
<svg width="35px" height="30px" viewBox="0 0 35 30" version="1.1" xmlns="http://www.w3.org/2000/svg" xmlns:xlink="http://www.w3.org/1999/xlink">
    <!-- Generator: Sketch 55.2 (78181) - https://sketchapp.com -->
    <title>icon-mail-white@1x</title>
    <desc>Created with Sketch.</desc>
    <g id="Layouts" stroke="none" stroke-width="1" fill="none" fill-rule="evenodd">
        <g id="abs-footer-expanded-phone-01" transform="translate(-320.000000, -36.000000)" fill="#FFFFFF" fill-rule="nonzero">
            <path d="M336.818501,53.0973659 L320.318473,37.7318176 C319.914301,37.3554352 319.891773,36.7226712 320.268155,36.3184995 C320.45732,36.1153686 320.722403,36 320.999973,36 L354.000031,36 C354.552316,36 355.000031,36.4477153 355.000031,37 C355.000031,37.2775704 354.884662,37.5426532 354.681531,37.7318176 L338.181503,53.0973659 C337.797525,53.4549424 337.202479,53.4549424 336.818501,53.0973659 Z M336.819633,57.4634732 L320.094683,41.9366667 L320.094683,64 C320.094683,65.1045695 320.990113,66 322.094683,66 L352.905321,66 C354.009891,66 354.905321,65.1045695 354.905321,64 L354.905321,41.9366667 L338.180371,57.4634732 C337.796713,57.8196464 337.203291,57.8196464 336.819633,57.4634732 Z" id="icon-mail-white"></path>
        </g>
    </g>
</svg>