<svg height="21" viewBox="0 0 35 21" width="35" xmlns="http://www.w3.org/2000/svg" xmlns:xlink="http://www.w3.org/1999/xlink"><mask id="a" fill="#fff"><path d="m.03992508.02354553h2.32439748v3.53032671h-2.32439748z" fill="#fff" fill-rule="evenodd"/></mask><mask id="b" fill="#fff"><path d="m.0465961.02354553h4.96996442v3.53032671h-4.96996442z" fill="#fff" fill-rule="evenodd"/></mask><mask id="c" fill="#fff"><path d="m.0419466.00664927h15.0100092v3.07617083h-15.0100092z" fill="#fff" fill-rule="evenodd"/></mask><g fill="none" fill-rule="evenodd" transform="translate(.138633)"><rect fill="#fff" height="20.19906" rx="2" transform="matrix(1 0 0 -1 0 20.19906)" width="33.976324"/><g transform="translate(5.824513 7.69488)"><g fill="#31322f"><path d="m1.77590781 1.17076394c0-.31811515-.26254528-.5832278-.57375872-.5832278-.31126398 0-.57385979.26511265-.57385979.5832278 0 .31335595.26259581.58327791.57385979.58327791.31121344 0 .57375872-.26992196.57375872-.58327791zm.24804085-.81462526c.21882984.22172876.3403739.51093801.3403739.81462526 0 .30373735-.12154406.5929466-.3403739.81467537-.21882985.21686936-.51058613.33259314-.82179957.33259314-.20427488 0-.38909261-.07228979-.54955098-.21691946l-.02430881-.0192372v1.29094634l-.58836422.18405592v-3.48999872h.58836422v.17358567l.02430881-.0241467c.17511441-.16867617.37443656-.19277277.54955098-.19277277.30636178 0 .59811807.11572378.82179957.33259315z" mask="url(#a)" transform="translate(9.70331 1.252422)"/><path d="m12.865224 2.42318579c0 .31816525.2625958.5832779.5738598.5832779.3112134 0 .5737587-.26511265.5737587-.5832779 0-.31330585-.2625453-.5832278-.5737587-.5832278-.311264 0-.5738598.26992195-.5738598.5832278zm-.2480409.81467536c-.2188298-.22172876-.3403739-.51093801-.3403739-.81467536 0-.30368725.1215441-.5928965.3403739-.81462527.2188299-.21686936.5106367-.33259314.8219007-.33259314.2041738 0 .3889915.07228979.5494499.21691946l.0243088.0192372v-.19282287h.5884147v2.20781933h-.5884147v-.17358566l-.0243088.02414669c-.1750134.16867617-.3744366.19277277-.5494499.19277277-.3064124 0-.5981181-.11572378-.8219007-.33259315z"/><g transform="translate(12.230213 1.252422)"><path d="m.63501086 1.17076394c0 .31816525.26259581.58327791.57385979.58327791.31121344 0 .57375872-.26511266.57375872-.58327791 0-.31330585-.26254528-.5832278-.57375872-.5832278-.31126398 0-.57385979.26992195-.57385979.5832278zm-.24804085.81467537c-.21882985-.22172877-.34037391-.51093802-.34037391-.81467537 0-.30368725.12154406-.5928965.34037391-.81462526.21882984-.21686937.51063666-.33259315.82190064-.33259315.20417381 0 .38899153.07228979.54944991.21691947l.02430881.01923719v-.19282286h.58841476v2.20781933h-.58841476v-.17358567l-.02430881.02414669c-.17501334.16867618-.37443657.19277277-.54944991.19277277-.30641232 0-.59811807-.11572378-.82190064-.33259314z" mask="url(#b)"/><path d="m2.95955996 3.55687805.53009382-1.27737009-.88992488-2.21262863h.65158734l.55440264 1.37385667.56405541-1.37385667h.64678623l-1.41996818 3.48999872z" mask="url(#b)"/><path d="m2.95955996 3.55687805.53009382-1.27737009-.88992488-2.21262863h.65158734l.55440264 1.37385667.56405541-1.37385667h.64678623l-1.41996818 3.48999872z" mask="url(#b)"/></g><path d="m1.13837004 1.64763609c-.42871445 0-.77752821.34792279-.77752821.7755497 0 .42762692.34881376.77554971.77752821.77554971.428765 0 .77757876-.34792279.77757876-.77554971 0-.42762691-.34881376-.7755497-.77757876-.7755497zm0 1.89922258c-.3043908 0-.59089112-.11522281-.80663814-.32447745-.21377604-.21666898-.3317319-.50066816-.3317319-.79919543s.11795586-.58252645.33218674-.7995962c.21534272-.20880377.5017925-.32402658.8061833-.32402658.30792847 0 .56723931.16151232.73047728.29697426l.04710148.03907557v-.28790674h.36089236v2.15100948h-.36089236v-.28795683l-.04710148.03902546c-.16323797.13551204-.42254881.29707446-.73047728.29707446z"/><path d="m2.9301468 3.49871558v-1.8125049h-.33067059v-.33850458h.33067059v-.63572933c0-.38955329.31202205-.69469335.71041366-.69469335h.45383188l-.09157499.33850458h-.35250304c-.19138767 0-.35932568.17093053-.35932568.36585747v.62606063h.68565v.33850458h-.68565v1.8125049z"/><path d="m5.33757834 3.49871558c-.39177112 0-.71041366-.31601108-.71041366-.70431195v-1.10819295h-.33072113v-.33850458h.33072113v-1.33042268h.36079129v1.33042268h.68570054v.33850458h-.68570054v1.09857435c0 .19647994.17132406.37542597.35942676.37542597h.35240196l.09162553.33850458z"/><path d="m6.89162402 1.66206399c-.27897015 0-.53797777.19938555-.6446131.49615943l-.00348712.0064625-.02061954.04107944h1.33774274l-.0258755-.05079823c-.0999643-.2933172-.35907299-.49290314-.64314748-.49290314zm-.00060646 1.87517608c-.28240674-.00020038-.54222296-.11662552-.73169019-.32788404-.17385096-.18666095-.27553356-.42071354-.29438426-.67730973-.00475058-.03376529-.00475058-.06552671-.00475058-.09919181 0-.08426294.00960223-.16977831.02850347-.25414144.04179499-.19337394.13529042-.37387297.27047976-.52215972.18835539-.20539718.45534801-.32327513.73244826-.32327513.27952606 0 .54151542.11492223.73765368.32357571.14074852.15444866.23424395.33469722.27002491.52100749.02830132.16466842.02900885.26691614.02597657.31816525h-1.71879979v.03807362c.05033592.38093663.34037391.66924414.67498647.67435402.20568995-.00996928.40860031-.09338057.54919722-.2242837l.30105529.17819458c-.08172006.08581594-.16920147.15640244-.26658833.21516607-.15874008.09438251-.35730416.14963936-.57411248.15970883z"/></g><g transform="translate(8.237706 .450872)"><path d="m.0419466 3.04784371v-2.15100947h.3609429v.27187573l.04988108-.05460559c.12796239-.13997067.50411725-.25404125.75417963-.26461169l-.08803732.35724081c-.39687547.0112718-.71602339.31796486-.71602339.69329064v1.14781957z" fill="#31322f" mask="url(#c)"/><path d="m12.1248918 1.47820846c.2145341-.12308802.4162315-.2388619.631928-.36260117-.0698436-.12148492-.0528123-.09227845-.1164397-.20690009-.0674178-.12143483-.0419971-.16917715.0972352-.17017908.4054165-.00280543.8109339-.00315611 1.2163503-.00105204.1204323.00065126.1494916.05175007.0890987.1570537-.2005351.34957599-.4032939.69789955-.607872 1.04517108-.0653457.11086438-.1225042.1106139-.1907812.00215417-.0701468-.11146555-.0514477-.08391227-.1264968-.21025658-.2115018.1217354-.422852.24342071-.6299065.36260117.0124324.03216219.0283013.05280211.0412896.07519541.156011.2691705.225703.39771908.3869195.66383367.1910339.31535983.5914976.33434654.8189189.04288293.025269-.03241268.0484155-.06682923.0690855-.10229782.3826238-.6569704.7654496-1.31379052 1.1457992-1.97206344.0385605-.06662884.0733307-.1394196.0900588-.21376336.0666597-.29632301-.1551013-.57646473-.4667696-.57811793-.8199297-.00430833-1.6400109-.00495959-2.4599406.00220427-.3734763.00325629-.5979159.37392306-.4338693.69970304.0534692.10605508.1176021.20684999.1776918.30959868.1130537.19342403.1429217.24432245.2677002.45683339" fill="#306e9a" mask="url(#c)"/></g><path d="m18.5394869 3.95875517c.0003538-.24382149.0010108-.7210944.0010108-.7210944s-.1008234-.00105204-.2370741-.00105204c-.138727 0-.1673315-.04859396-.0988525-.16747385.1995244-.34621949.4012723-.69123666.6050924-1.03500141.0605446-.10209743.1141655-.11106477.1803198.00245475.2012426.34551813.4031422.6906856.6017568 1.03770664.0634253.11076419.0347197.15925796-.0931922.16331581-.132056 0-.244958-.00015029-.244958-.00015029l-.0000506.72324857s.5383316.00010019.8530321.00010019c.3680688-.00541046.584018-.3365007.4450383-.67510547-.0154141-.03762275-.0336584-.07444396-.0540757-.10971215-.3779743-.65271217-.7557969-1.30552454-1.1359948-1.95698429-.03851-.06592748-.0841459-.13180487-.1401421-.18305397-.2232772-.20434515-.576235-.15530031-.7329031.1089106-.412239.69519432-.8213447 1.39234242-1.2236783 2.09319768-.183251.31926738.0257239.69484364.3894464.71758762.1184107.00741434.6240441.00310601.8852248.00310601" fill="#1f4066"/></g></g></svg>