<?xml version="1.0" encoding="UTF-8"?><svg xmlns="http://www.w3.org/2000/svg" xmlns:xlink="http://www.w3.org/1999/xlink" width="294" height="87" viewBox="0 0 294 87"><defs><path id="a" d="M12.96,22.856 L18.299,6.924 L24.119,22.856 M36.718,33.03 C32.998,22.856 25.619,2.84 25.619,2.306 C25.619,1.635 26.039,1.502 26.699,1.435 L26.699,0.632 L11.04,0.632 L11.04,1.435 C11.58,1.502 12.239,1.635 12.239,2.104 C12.239,2.506 2.1,31.961 1.56,33.499 C1.2,34.571 0.84,34.84 0,35.04 L0,35.843 L10.62,35.843 L10.62,35.04 C9.78,35.04 9.54,34.771 9.54,34.371 C9.54,33.969 9.899,33.099 11.46,28.211 L25.679,28.211 C25.919,29.082 27.719,33.969 27.719,34.235 C27.719,34.638 27.419,34.973 26.579,35.04 L26.579,35.843 L38.398,35.843 L38.398,35.04 C37.678,35.04 37.318,34.638 36.718,33.03"/></defs><g fill="none" fill-rule="evenodd"><path fill="#FFF" d="M12.96,38.856 L18.299,22.924 L24.119,38.856 L12.96,38.856 Z M36.718,49.03 C32.998,38.856 25.619,18.84 25.619,18.306 C25.619,17.635 26.039,17.502 26.699,17.435 L26.699,16.632 L11.04,16.632 L11.04,17.435 C11.58,17.502 12.239,17.635 12.239,18.104 C12.239,18.506 2.1,47.961 1.56,49.499 C1.2,50.571 0.84,50.84 0,51.04 L0,51.843 L10.62,51.843 L10.62,51.04 C9.78,51.04 9.54,50.771 9.54,50.371 C9.54,49.969 9.899,49.099 11.46,44.211 L25.679,44.211 C25.919,45.082 27.719,49.969 27.719,50.235 C27.719,50.638 27.419,50.973 26.579,51.04 L26.579,51.843 L38.398,51.843 L38.398,51.04 C37.678,51.04 37.318,50.638 36.718,49.03 L36.718,49.03 Z"/><g transform="translate(0.000000, 16.000000)"><mask id="b" fill="#fff"><use xlink:href="#a"/></mask><path fill="#FFF" d="M12.96 22.856L24.119 22.856 18.299 6.924 12.96 22.856" mask="url(#b)"/></g><path fill="#FFF" d="M64.882 31.492L54.802 31.492 54.802 24.129 64.882 24.129C68.421 24.129 69.502 25.869 69.502 27.811 69.502 29.751 68.421 31.492 64.882 31.492zM77.241 49.835L70.162 38.722C75.141 37.183 78.741 33.902 78.741 27.744 78.741 20.112 74.961 16.632 66.081 16.632L44.123 16.632 44.123 17.435C45.623 17.568 45.802 18.037 45.802 18.64L45.802 49.835C45.802 50.438 45.623 50.906 44.123 51.04L44.123 51.843 56.482 51.843 56.482 51.04C54.982 50.906 54.802 50.438 54.802 49.835L54.802 38.588 60.682 38.588C61.462 39.993 67.822 49.232 67.822 49.835 67.822 50.638 67.341 50.973 66.502 51.04L66.502 51.843 78.981 51.843 78.981 51.04C78.321 51.04 77.781 50.704 77.241 49.835L77.241 49.835zM203.066 43.677L182.427 43.677 182.427 18.64C182.427 18.037 182.607 17.568 184.107 17.435L184.107 16.632 171.748 16.632 171.748 17.435C173.248 17.568 173.427 18.037 173.427 18.64L173.427 33.045 165.684 31.978C164.739 22.556 157.867 17.169 149.376 16.351L150.564 24.968C153.213 25.867 155.375 27.821 156.352 30.692L151.345 30.002 147.153 34.093 147.153 67.971 149.336 52.128C157.933 51.315 164.877 45.822 165.709 36.205L156.461 37.479C155.534 40.535 153.285 42.595 150.523 43.52L151.244 38.285 147.154 34.093 181.031 34.093 173.427 35.141 173.427 49.835C173.427 50.438 173.248 50.906 171.748 51.04L171.748 51.843 203.066 51.843C203.726 51.843 203.966 52.178 204.145 53.583L204.866 53.583 204.866 41.803 204.145 41.803C203.966 43.341 203.726 43.677 203.066 43.677M227.765 43.944L220.145 43.944 220.145 24.53 227.765 24.53C234.125 24.53 236.705 28.548 236.705 34.237 236.705 39.927 234.125 43.944 227.765 43.944zM229.384 16.632L209.465 16.632 209.465 17.435C210.965 17.568 211.145 18.037 211.145 18.64L211.145 49.835C211.145 50.438 210.965 50.906 209.465 51.04L209.465 51.843 228.724 51.843C239.884 51.843 245.583 43.408 245.583 34.237 245.583 24.263 240.423 16.632 229.384 16.632L229.384 16.632zM253.104 15.024C250.464 15.024 248.125 16.966 248.125 20.045 248.125 23.794 250.645 25.334 253.765 25.334 253.224 28.413 250.765 30.287 248.304 31.358L248.304 33.501C253.165 31.693 258.205 28.012 258.205 21.651 258.205 18.104 256.584 15.024 253.104 15.024M268.395 26.07C268.395 24.53 270.195 22.924 275.416 22.924 281.054 22.924 287.894 24.798 287.894 26.472L287.894 27.208 288.615 27.609 292.754 18.306 292.094 18.037C291.674 18.572 291.254 19.041 290.474 19.041 288.854 19.041 282.915 16.229 274.695 16.229 265.875 16.229 260.116 20.85 260.116 27.543 260.116 40.462 284.834 34.974 284.834 39.927 284.834 42.872 282.134 44.479 276.134 44.479 269.895 44.479 263.476 41.467 263.476 39.66 263.476 39.057 263.476 38.588 263.595 38.254L262.996 37.919 258.556 49.835 259.275 50.035C259.636 49.634 259.996 49.166 260.476 49.166 261.855 49.166 266.295 52.245 276.315 52.245 289.334 52.245 293.234 45.885 293.234 40.129 293.234 24.731 268.395 32.028 268.395 26.07M137.249 34.093L113.275 34.093 120.789 33.058 120.789 18.64C120.789 18.037 120.969 17.568 122.469 17.435L122.469 16.632 111.489 16.632 111.489 17.435C112.269 17.502 112.749 17.837 112.749 18.64L112.749 36.514C108.549 31.358 98.169 19.041 98.169 18.306 98.169 17.903 98.47 17.502 99.85 17.435L99.85 16.632 85.39 16.632 85.39 17.435C86.89 17.568 87.07 18.037 87.07 18.64L87.07 49.835C87.07 50.438 86.89 50.906 85.39 51.04L85.39 51.843 96.79 51.843 96.79 51.04C95.29 50.906 95.11 50.438 95.11 49.835L95.11 28.814C110.949 48.563 112.449 49.433 112.449 50.304 112.449 50.771 112.149 51.04 111.069 51.04L111.069 51.843 122.469 51.843 122.469 51.04C120.969 50.906 120.789 50.438 120.789 49.835L120.789 35.128 128.452 36.184C129.281 45.868 136.302 51.381 144.972 52.146L143.79 43.567C140.953 42.666 138.637 40.579 137.697 37.458L142.962 38.184 147.144 34.103 147.153 34.093 137.249 34.093"/><path fill="#FFF" d="M147.153,16.232 L147.153,0.215 L144.932,16.334 C136.367,17.104 129.418,22.509 128.476,31.998 L137.804,30.713 C138.795,27.777 141.025,25.798 143.749,24.921 L143.062,29.9 L147.153,34.093 L147.153,16.232"/><path fill="#921C22" d="M147.144 34.103L147.153 34.093 147.144 34.103"/><path fill="#9FA09E" d="M10.607 83.761L6.684 83.761 6.684 79.873 10.607 79.873C12.011 79.873 13.595 79.873 13.595 81.816 13.595 83.257 12.263 83.761 10.607 83.761zM6.684 73.97L10.967 73.97C12.551 73.97 13.343 74.258 13.343 75.697 13.343 76.634 12.839 77.426 10.967 77.426L6.684 77.426 6.684 73.97zM15.215 78.325C16.511 77.713 17.591 76.382 17.591 74.87 17.591 71.666 15.863 70.946 11.543 70.946L.708 70.946.708 71.378C1.429 71.414 1.86 71.522 1.86 72.026L1.86 85.704C1.86 86.208 1.429 86.316.708 86.353L.708 86.784 11.687 86.784C16.223 86.784 18.13 84.984 18.13 82.177 18.13 80.089 17.123 78.938 15.215 78.325L15.215 78.325zM37.823 83.185C35.088 83.185 32.892 81.529 32.892 78.865 32.892 76.201 35.088 74.546 37.823 74.546 40.559 74.546 42.755 76.201 42.755 78.865 42.755 81.529 40.559 83.185 37.823 83.185zM37.823 70.73C33.324 70.73 28.212 73.178 28.212 78.865 28.212 84.553 33.324 87 37.823 87 42.323 87 47.434 84.553 47.434 78.865 47.434 73.178 42.323 70.73 37.823 70.73L37.823 70.73zM63.001 80.989L65.953 74.689 68.977 80.989 63.001 80.989zM76.032 85.992C74.448 82.285 69.409 72.17 69.409 71.738 69.409 71.486 69.517 71.414 69.876 71.378L69.876 70.946 62.353 70.946 62.353 71.378C62.713 71.414 62.821 71.486 62.821 71.738 62.821 72.242 59.474 79.261 56.594 85.992 56.486 86.244 56.163 86.353 55.874 86.353L55.874 86.784 61.274 86.784 61.274 86.353C61.13 86.353 60.806 86.353 60.806 86.028 60.806 85.632 61.634 84.229 61.85 83.581L70.201 83.581C70.453 84.229 71.245 85.632 71.245 86.028 71.245 86.353 70.92 86.353 70.776 86.353L70.776 86.784 76.752 86.784 76.752 86.353C76.464 86.353 76.14 86.244 76.032 85.992L76.032 85.992zM100.462 70.946L85.344 70.946C85.056 70.946 84.696 70.802 84.696 70.154L84.264 70.154 84.264 75.409 84.696 75.409C84.696 74.762 85.056 74.618 85.344 74.618L90.491 74.618 90.491 85.704C90.491 86.208 90.059 86.316 89.663 86.353L89.663 86.784 96.142 86.784 96.142 86.353C95.747 86.316 95.314 86.208 95.314 85.704L95.314 74.618 100.462 74.618C100.75 74.618 101.11 74.762 101.11 75.409L101.542 75.409 101.542 70.154 101.11 70.154C101.11 70.802 100.75 70.946 100.462 70.946M134.806 75.554C134.806 73.97 138.01 73.97 138.91 73.97 141.322 73.97 143.877 74.941 143.877 75.302 143.877 75.445 143.841 75.59 143.841 75.697L144.31 75.913 146.469 71.378 146.074 71.234C145.893 71.378 145.677 71.666 145.281 71.666 144.49 71.666 141.538 70.73 138.119 70.73 132.251 70.73 130.127 73.861 130.127 76.094 130.127 82.141 141.898 79.405 141.898 82.213 141.898 83.616 139.522 83.761 138.623 83.761 135.707 83.761 131.567 82.824 131.567 81.889 131.567 81.709 131.603 81.6 131.603 81.493L131.135 81.277 129.66 86.1 130.055 86.208C130.307 85.956 130.559 85.704 130.883 85.704 131.171 85.704 135.203 87 138.658 87 144.166 87 146.578 84.553 146.578 81.745 146.578 75.481 134.806 78.109 134.806 75.554M169.733 71.378C170.309 71.414 170.741 71.522 170.741 72.026L170.741 76.562 162.786 76.562 162.786 72.026C162.786 71.522 163.218 71.414 163.793 71.378L163.793 70.946 156.955 70.946 156.955 71.378C157.531 71.414 157.962 71.522 157.962 72.026L157.962 85.704C157.962 86.208 157.531 86.316 156.955 86.353L156.955 86.784 163.793 86.784 163.793 86.353C163.218 86.316 162.786 86.208 162.786 85.704L162.786 80.233 170.741 80.233 170.741 85.704C170.741 86.208 170.309 86.316 169.733 86.353L169.733 86.784 176.572 86.784 176.572 86.353C175.996 86.316 175.564 86.208 175.564 85.704L175.564 72.026C175.564 71.522 175.996 71.414 176.572 71.378L176.572 70.946 169.733 70.946 169.733 71.378M196.32 83.185C193.583 83.185 191.388 81.529 191.388 78.865 191.388 76.201 193.583 74.546 196.32 74.546 199.055 74.546 201.251 76.201 201.251 78.865 201.251 81.529 199.055 83.185 196.32 83.185zM196.32 70.73C191.82 70.73 186.708 73.178 186.708 78.865 186.708 84.553 191.82 87 196.32 87 200.819 87 205.93 84.553 205.93 78.865 205.93 73.178 200.819 70.73 196.32 70.73L196.32 70.73zM225.195 78.217L221.775 78.217 221.775 73.97 225.482 73.97C227.283 73.97 228.001 74.618 228.001 76.094 228.001 77.642 227.138 78.217 225.195 78.217zM225.842 70.946L216.375 70.946 216.375 71.378C216.519 71.414 216.951 71.522 216.951 72.026L216.951 85.704C216.951 86.208 216.519 86.316 216.375 86.353L216.375 86.784 222.603 86.784 222.603 86.353C222.207 86.316 221.775 86.208 221.775 85.704L221.775 81.241 225.842 81.241C229.406 81.241 232.681 80.233 232.681 76.094 232.681 71.954 229.406 70.946 225.842 70.946L225.842 70.946z"/></g></svg>