<?xml version="1.0" encoding="UTF-8"?><svg xmlns="http://www.w3.org/2000/svg" xmlns:xlink="http://www.w3.org/1999/xlink" width="294" height="87" viewBox="0 0 294 87"><defs><path id="a" d="M12.96,22.856 L18.299,6.924 L24.119,22.856 M36.718,33.03 C32.998,22.856 25.619,2.84 25.619,2.306 C25.619,1.635 26.039,1.502 26.699,1.435 L26.699,0.632 L11.04,0.632 L11.04,1.435 C11.58,1.502 12.239,1.635 12.239,2.104 C12.239,2.506 2.1,31.961 1.56,33.499 C1.2,34.571 0.84,34.84 0,35.04 L0,35.843 L10.62,35.843 L10.62,35.04 C9.78,35.04 9.54,34.771 9.54,34.371 C9.54,33.969 9.899,33.099 11.46,28.211 L25.679,28.211 C25.919,29.082 27.719,33.969 27.719,34.235 C27.719,34.638 27.419,34.973 26.579,35.04 L26.579,35.843 L38.398,35.843 L38.398,35.04 C37.678,35.04 37.318,34.638 36.718,33.03"/></defs><g fill="none" fill-rule="evenodd"><path fill="#921C22" d="M12.96,38.856 L18.299,22.924 L24.119,38.856 L12.96,38.856 Z M36.718,49.03 C32.998,38.856 25.619,18.84 25.619,18.306 C25.619,17.635 26.039,17.502 26.699,17.435 L26.699,16.632 L11.04,16.632 L11.04,17.435 C11.58,17.502 12.239,17.635 12.239,18.104 C12.239,18.506 2.1,47.961 1.56,49.499 C1.2,50.571 0.84,50.84 0,51.04 L0,51.843 L10.62,51.843 L10.62,51.04 C9.78,51.04 9.54,50.771 9.54,50.371 C9.54,49.969 9.899,49.099 11.46,44.211 L25.679,44.211 C25.919,45.082 27.719,49.969 27.719,50.235 C27.719,50.638 27.419,50.973 26.579,51.04 L26.579,51.843 L38.398,51.843 L38.398,51.04 C37.678,51.04 37.318,50.638 36.718,49.03 L36.718,49.03 Z"/><g transform="translate(0.000000, 16.000000)"><mask id="b" fill="#fff"><use xlink:href="#a"/></mask><path fill="#921C22" d="M12.96 22.856L24.119 22.856 18.299 6.924 12.96 22.856" mask="url(#b)"/></g><path fill="#921C22" d="M64.882 31.492L54.802 31.492 54.802 24.129 64.882 24.129C68.421 24.129 69.502 25.869 69.502 27.811 69.502 29.751 68.421 31.492 64.882 31.492zM77.241 49.835L70.162 38.722C75.141 37.183 78.741 33.902 78.741 27.744 78.741 20.112 74.961 16.632 66.081 16.632L44.123 16.632 44.123 17.435C45.623 17.568 45.802 18.037 45.802 18.64L45.802 49.835C45.802 50.438 45.623 50.906 44.123 51.04L44.123 51.843 56.482 51.843 56.482 51.04C54.982 50.906 54.802 50.438 54.802 49.835L54.802 38.588 60.682 38.588C61.462 39.993 67.822 49.232 67.822 49.835 67.822 50.638 67.341 50.973 66.502 51.04L66.502 51.843 78.981 51.843 78.981 51.04C78.321 51.04 77.781 50.704 77.241 49.835L77.241 49.835zM203.066 43.677L182.427 43.677 182.427 18.64C182.427 18.037 182.607 17.568 184.107 17.435L184.107 16.632 171.748 16.632 171.748 17.435C173.248 17.568 173.427 18.037 173.427 18.64L173.427 33.045 165.684 31.978C164.739 22.556 157.867 17.169 149.376 16.351L150.564 24.968C153.213 25.867 155.375 27.821 156.352 30.692L151.345 30.002 147.153 34.093 147.153 67.971 149.336 52.128C157.933 51.315 164.877 45.822 165.709 36.205L156.461 37.479C155.534 40.535 153.285 42.595 150.523 43.52L151.244 38.285 147.154 34.093 181.031 34.093 173.427 35.141 173.427 49.835C173.427 50.438 173.248 50.906 171.748 51.04L171.748 51.843 203.066 51.843C203.726 51.843 203.966 52.178 204.145 53.583L204.866 53.583 204.866 41.803 204.145 41.803C203.966 43.341 203.726 43.677 203.066 43.677M227.765 43.944L220.145 43.944 220.145 24.53 227.765 24.53C234.125 24.53 236.705 28.548 236.705 34.237 236.705 39.927 234.125 43.944 227.765 43.944zM229.384 16.632L209.465 16.632 209.465 17.435C210.965 17.568 211.145 18.037 211.145 18.64L211.145 49.835C211.145 50.438 210.965 50.906 209.465 51.04L209.465 51.843 228.724 51.843C239.884 51.843 245.583 43.408 245.583 34.237 245.583 24.263 240.423 16.632 229.384 16.632L229.384 16.632zM253.104 15.024C250.464 15.024 248.125 16.966 248.125 20.045 248.125 23.794 250.645 25.334 253.765 25.334 253.224 28.413 250.765 30.287 248.304 31.358L248.304 33.501C253.165 31.693 258.205 28.012 258.205 21.651 258.205 18.104 256.584 15.024 253.104 15.024M268.395 26.07C268.395 24.53 270.195 22.924 275.416 22.924 281.054 22.924 287.894 24.798 287.894 26.472L287.894 27.208 288.615 27.609 292.754 18.306 292.094 18.037C291.674 18.572 291.254 19.041 290.474 19.041 288.854 19.041 282.915 16.229 274.695 16.229 265.875 16.229 260.116 20.85 260.116 27.543 260.116 40.462 284.834 34.974 284.834 39.927 284.834 42.872 282.134 44.479 276.134 44.479 269.895 44.479 263.476 41.467 263.476 39.66 263.476 39.057 263.476 38.588 263.595 38.254L262.996 37.919 258.556 49.835 259.275 50.035C259.636 49.634 259.996 49.166 260.476 49.166 261.855 49.166 266.295 52.245 276.315 52.245 289.334 52.245 293.234 45.885 293.234 40.129 293.234 24.731 268.395 32.028 268.395 26.07M137.249 34.093L113.275 34.093 120.789 33.058 120.789 18.64C120.789 18.037 120.969 17.568 122.469 17.435L122.469 16.632 111.489 16.632 111.489 17.435C112.269 17.502 112.749 17.837 112.749 18.64L112.749 36.514C108.549 31.358 98.169 19.041 98.169 18.306 98.169 17.903 98.47 17.502 99.85 17.435L99.85 16.632 85.39 16.632 85.39 17.435C86.89 17.568 87.07 18.037 87.07 18.64L87.07 49.835C87.07 50.438 86.89 50.906 85.39 51.04L85.39 51.843 96.79 51.843 96.79 51.04C95.29 50.906 95.11 50.438 95.11 49.835L95.11 28.814C110.949 48.563 112.449 49.433 112.449 50.304 112.449 50.771 112.149 51.04 111.069 51.04L111.069 51.843 122.469 51.843 122.469 51.04C120.969 50.906 120.789 50.438 120.789 49.835L120.789 35.128 128.452 36.184C129.281 45.868 136.302 51.381 144.972 52.146L143.79 43.567C140.953 42.666 138.637 40.579 137.697 37.458L142.962 38.184 147.144 34.103 147.153 34.093 137.249 34.093"/><path fill="#921C22" d="M147.153 16.232L147.153.215 144.932 16.334C136.367 17.104 129.418 22.509 128.476 31.998L137.804 30.713C138.795 27.777 141.025 25.798 143.749 24.921L143.062 29.9 147.153 34.093 147.153 16.232M147.144 34.103L147.153 34.093 147.144 34.103"/><path fill="#9FA09E" d="M41.607 83.761L37.684 83.761 37.684 79.873 41.607 79.873C43.011 79.873 44.595 79.873 44.595 81.816 44.595 83.257 43.263 83.761 41.607 83.761zM37.684 73.97L41.967 73.97C43.551 73.97 44.343 74.258 44.343 75.697 44.343 76.634 43.839 77.426 41.967 77.426L37.684 77.426 37.684 73.97zM46.215 78.325C47.511 77.713 48.591 76.382 48.591 74.87 48.591 71.666 46.863 70.946 42.543 70.946L31.708 70.946 31.708 71.378C32.429 71.414 32.86 71.522 32.86 72.026L32.86 85.704C32.86 86.208 32.429 86.316 31.708 86.353L31.708 86.784 42.687 86.784C47.223 86.784 49.13 84.984 49.13 82.177 49.13 80.089 48.123 78.938 46.215 78.325L46.215 78.325zM68.823 83.185C66.088 83.185 63.892 81.529 63.892 78.865 63.892 76.201 66.088 74.546 68.823 74.546 71.559 74.546 73.755 76.201 73.755 78.865 73.755 81.529 71.559 83.185 68.823 83.185zM68.823 70.73C64.324 70.73 59.212 73.178 59.212 78.865 59.212 84.553 64.324 87 68.823 87 73.323 87 78.434 84.553 78.434 78.865 78.434 73.178 73.323 70.73 68.823 70.73L68.823 70.73zM94.001 80.989L96.953 74.689 99.977 80.989 94.001 80.989zM107.032 85.992C105.448 82.285 100.409 72.17 100.409 71.738 100.409 71.486 100.517 71.414 100.876 71.378L100.876 70.946 93.353 70.946 93.353 71.378C93.713 71.414 93.821 71.486 93.821 71.738 93.821 72.242 90.474 79.261 87.594 85.992 87.486 86.244 87.163 86.353 86.874 86.353L86.874 86.784 92.274 86.784 92.274 86.353C92.13 86.353 91.806 86.353 91.806 86.028 91.806 85.632 92.634 84.229 92.85 83.581L101.201 83.581C101.453 84.229 102.245 85.632 102.245 86.028 102.245 86.353 101.92 86.353 101.776 86.353L101.776 86.784 107.752 86.784 107.752 86.353C107.464 86.353 107.14 86.244 107.032 85.992L107.032 85.992zM131.462 70.946L116.344 70.946C116.056 70.946 115.696 70.802 115.696 70.154L115.264 70.154 115.264 75.409 115.696 75.409C115.696 74.762 116.056 74.618 116.344 74.618L121.491 74.618 121.491 85.704C121.491 86.208 121.059 86.316 120.663 86.353L120.663 86.784 127.142 86.784 127.142 86.353C126.747 86.316 126.314 86.208 126.314 85.704L126.314 74.618 131.462 74.618C131.75 74.618 132.11 74.762 132.11 75.409L132.542 75.409 132.542 70.154 132.11 70.154C132.11 70.802 131.75 70.946 131.462 70.946M165.806 75.554C165.806 73.97 169.01 73.97 169.91 73.97 172.322 73.97 174.877 74.941 174.877 75.302 174.877 75.445 174.841 75.59 174.841 75.697L175.31 75.913 177.469 71.378 177.074 71.234C176.893 71.378 176.677 71.666 176.281 71.666 175.49 71.666 172.538 70.73 169.119 70.73 163.251 70.73 161.127 73.861 161.127 76.094 161.127 82.141 172.898 79.405 172.898 82.213 172.898 83.616 170.522 83.761 169.623 83.761 166.707 83.761 162.567 82.824 162.567 81.889 162.567 81.709 162.603 81.6 162.603 81.493L162.135 81.277 160.66 86.1 161.055 86.208C161.307 85.956 161.559 85.704 161.883 85.704 162.171 85.704 166.203 87 169.658 87 175.166 87 177.578 84.553 177.578 81.745 177.578 75.481 165.806 78.109 165.806 75.554M200.733 71.378C201.309 71.414 201.741 71.522 201.741 72.026L201.741 76.562 193.786 76.562 193.786 72.026C193.786 71.522 194.218 71.414 194.793 71.378L194.793 70.946 187.955 70.946 187.955 71.378C188.531 71.414 188.962 71.522 188.962 72.026L188.962 85.704C188.962 86.208 188.531 86.316 187.955 86.353L187.955 86.784 194.793 86.784 194.793 86.353C194.218 86.316 193.786 86.208 193.786 85.704L193.786 80.233 201.741 80.233 201.741 85.704C201.741 86.208 201.309 86.316 200.733 86.353L200.733 86.784 207.572 86.784 207.572 86.353C206.996 86.316 206.564 86.208 206.564 85.704L206.564 72.026C206.564 71.522 206.996 71.414 207.572 71.378L207.572 70.946 200.733 70.946 200.733 71.378M227.32 83.185C224.583 83.185 222.388 81.529 222.388 78.865 222.388 76.201 224.583 74.546 227.32 74.546 230.055 74.546 232.251 76.201 232.251 78.865 232.251 81.529 230.055 83.185 227.32 83.185zM227.32 70.73C222.82 70.73 217.708 73.178 217.708 78.865 217.708 84.553 222.82 87 227.32 87 231.819 87 236.93 84.553 236.93 78.865 236.93 73.178 231.819 70.73 227.32 70.73L227.32 70.73zM256.195 78.217L252.775 78.217 252.775 73.97 256.482 73.97C258.283 73.97 259.001 74.618 259.001 76.094 259.001 77.642 258.138 78.217 256.195 78.217zM256.842 70.946L247.375 70.946 247.375 71.378C247.519 71.414 247.951 71.522 247.951 72.026L247.951 85.704C247.951 86.208 247.519 86.316 247.375 86.353L247.375 86.784 253.603 86.784 253.603 86.353C253.207 86.316 252.775 86.208 252.775 85.704L252.775 81.241 256.842 81.241C260.406 81.241 263.681 80.233 263.681 76.094 263.681 71.954 260.406 70.946 256.842 70.946L256.842 70.946z"/></g></svg>