<svg height="96" viewBox="0 0 461 96" width="461" xmlns="http://www.w3.org/2000/svg" xmlns:xlink="http://www.w3.org/1999/xlink"><mask id="a" fill="#fff"><path d="m.79.47h45.993v70.47h-45.993z" fill="#fff" fill-rule="evenodd"/></mask><mask id="b" fill="#fff"><path d="m.922.47h98.341v70.47h-98.341z" fill="#fff" fill-rule="evenodd"/></mask><mask id="c" fill="#fff"><path d="m.83.1327283h297.004v61.4044467h-297.004z" fill="#fff" fill-rule="evenodd"/></mask><g fill="none" fill-rule="evenodd"><g fill="#31322f"><path d="m35.14 23.37c0-6.35-5.195-11.642-11.353-11.642-6.159 0-11.355 5.292-11.355 11.642 0 6.255 5.196 11.643 11.355 11.643 6.158 0 11.353-5.388 11.353-11.643zm4.908-16.261c4.33 4.426 6.735 10.199 6.735 16.261 0 6.063-2.405 11.836-6.735 16.262-4.33 4.329-10.103 6.639-16.261 6.639-4.042 0-7.699-1.443-10.874-4.33l-.481-.384v25.769l-11.642 3.674v-69.665h11.642v3.465l.481-.482c3.465-3.367 7.409-3.848 10.874-3.848 6.062 0 11.835 2.31 16.261 6.639z" mask="url(#a)" transform="translate(192 25)"/><path d="m254.565 48.37c0 6.351 5.196 11.643 11.355 11.643 6.158 0 11.353-5.292 11.353-11.643 0-6.254-5.195-11.642-11.353-11.642-6.159 0-11.355 5.388-11.355 11.642zm-4.908 16.262c-4.33-4.426-6.735-10.199-6.735-16.262 0-6.062 2.405-11.835 6.735-16.261 4.33-4.329 10.104-6.639 16.263-6.639 4.04 0 7.697 1.443 10.872 4.33l.481.384v-3.849h11.643v44.071h-11.643v-3.465l-.481.482c-3.463 3.367-7.409 3.848-10.872 3.848-6.063 0-11.835-2.31-16.263-6.639z"/><g transform="translate(242 25)"><path d="m12.565 23.37c0 6.351 5.196 11.643 11.355 11.643 6.158 0 11.353-5.292 11.353-11.643 0-6.254-5.195-11.642-11.353-11.642-6.159 0-11.355 5.388-11.355 11.642zm-4.908 16.262c-4.33-4.426-6.735-10.199-6.735-16.262 0-6.062 2.405-11.835 6.735-16.261 4.33-4.329 10.104-6.639 16.263-6.639 4.04 0 7.697 1.443 10.872 4.33l.481.384v-3.849h11.643v44.071h-11.643v-3.465l-.481.482c-3.463 3.367-7.409 3.848-10.872 3.848-6.063 0-11.835-2.31-16.263-6.639z" mask="url(#b)"/><path d="m58.561 71 10.489-25.498-17.609-44.167h12.893l10.97 27.424 11.161-27.424h12.798l-28.097 69.665z" mask="url(#b)"/><path d="m58.561 71 10.489-25.498-17.609-44.167h12.893l10.97 27.424 11.161-27.424h12.798l-28.097 69.665z" mask="url(#b)"/></g><path d="m22.525 32.889c-8.483 0-15.385 6.945-15.385 15.481s6.902 15.481 15.385 15.481c8.484 0 15.386-6.945 15.386-15.481s-6.902-15.481-15.386-15.481zm0 37.911c-6.023 0-11.692-2.3-15.961-6.477-4.23-4.325-6.564-9.994-6.564-15.953s2.334-11.628 6.573-15.961c4.261-4.168 9.929-6.468 15.952-6.468 6.093 0 11.224 3.224 14.454 5.928l.932.78v-5.747h7.141v42.937h-7.141v-5.748l-.932.779c-3.23 2.705-8.361 5.93-14.454 5.93z"/><path d="m57.979 69.839v-36.18h-6.543v-6.757h6.543v-12.69c0-7.776 6.174-13.867 14.057-13.867h8.98l-1.812 6.757h-6.975c-3.787 0-7.11 3.412-7.11 7.303v12.497h13.567v6.757h-13.567v36.18z"/><path d="m105.615 69.839c-7.752 0-14.057-6.308-14.057-14.059v-22.121h-6.544v-6.757h6.544v-26.557h7.139v26.557h13.568v6.757h-13.568v21.929c0 3.922 3.39 7.494 7.112 7.494h6.973l1.813 6.757z"/><path d="m136.365 33.177c-5.52 0-10.645 3.98-12.755 9.904l-.069.129-.408.82h26.47l-.512-1.014c-1.978-5.855-7.105-9.839-12.726-9.839zm-.012 37.431c-5.588-.004-10.729-2.328-14.478-6.545-3.44-3.726-5.452-8.398-5.825-13.52-.094-.674-.094-1.308-.094-1.98 0-1.682.19-3.389.564-5.073.827-3.86 2.677-7.463 5.352-10.423 3.727-4.1 9.01-6.453 14.493-6.453 5.531 0 10.715 2.294 14.596 6.459 2.785 3.083 4.635 6.681 5.343 10.4.56 3.287.574 5.328.514 6.351h-34.01v.76c.996 7.604 6.735 13.359 13.356 13.461 4.07-.199 8.085-1.864 10.867-4.477l5.957 3.557c-1.617 1.713-3.348 3.122-5.275 4.295-3.141 1.884-7.07 2.987-11.36 3.188z"/></g><g transform="translate(163 9)"><path d="m.83 60.839v-42.937h7.142v5.427l.987-1.09c2.532-2.794 9.975-5.071 14.923-5.282l-1.742 7.131c-7.853.225-14.168 6.347-14.168 13.839v22.912z" fill="#31322f" mask="url(#c)"/><path d="m239.916 29.507c4.245-2.457 8.236-4.768 12.504-7.238-1.382-2.425-1.045-1.842-2.304-4.13-1.334-2.424-.831-3.377 1.924-3.397 8.022-.056 16.046-.063 24.068-.021 2.383.013 2.958 1.033 1.763 3.135-3.968 6.978-7.98 13.931-12.028 20.863-1.293 2.213-2.424 2.208-3.775.043-1.388-2.225-1.018-1.675-2.503-4.197-4.185 2.43-8.367 4.859-12.464 7.238.246.642.56 1.054.817 1.501 3.087 5.373 4.466 7.939 7.656 13.251 3.78 6.295 11.704 6.674 16.204.856.5-.647.958-1.334 1.367-2.042 7.571-13.114 15.146-26.225 22.672-39.365.763-1.33 1.451-2.783 1.782-4.267 1.319-5.915-3.069-11.507-9.236-11.54-16.224-.086-32.451-.099-48.675.044-7.39.065-11.831 7.464-8.585 13.967 1.058 2.117 2.327 4.129 3.516 6.18 2.237 3.861 2.828 4.877 5.297 9.119" fill="#306e9a" mask="url(#c)"/></g><path d="m366.842 79.022c.007-4.867.02-14.394.02-14.394s-1.995-.021-4.691-.021c-2.745 0-3.311-.97-1.956-3.343 3.948-6.911 7.94-13.798 11.973-20.66 1.198-2.038 2.259-2.217 3.568.049 3.982 6.897 7.977 13.787 11.907 20.714 1.255 2.211.687 3.179-1.844 3.26-2.613 0-4.847-.003-4.847-.003l-.001 14.437s10.652.002 16.879.002c7.283-.108 11.556-6.717 8.806-13.476-.305-.751-.666-1.486-1.07-2.19-7.479-13.029-14.955-26.06-22.478-39.064-.762-1.316-1.665-2.631-2.773-3.654-4.418-4.079-11.402-3.1-14.502 2.174-8.157 13.877-16.252 27.793-24.213 41.783-3.626 6.373.509 13.87 7.706 14.324 2.343.148 12.348.062 17.516.062" fill="#1f4066"/></g></svg>